<svg xmlns="http://www.w3.org/2000/svg" xmlns:xlink="http://www.w3.org/1999/xlink" width="96" height="96" viewBox="0 0 96 96">
  <defs>
    <clipPath id="clip-path">
      <rect id="Rectángulo_456267" data-name="Rectángulo 456267" width="96" height="96" fill="none"/>
    </clipPath>
  </defs>
  <g id="Grupo_1185385" data-name="Grupo 1185385" transform="translate(-1193 -4372)">
    <g id="Grupo_1185384" data-name="Grupo 1185384" transform="translate(1672.746 12867) rotate(180)">
      <path id="Trazado_999622" data-name="Trazado 999622" d="M43.07,0A43.07,43.07,0,1,1,0,43.07,43.071,43.071,0,0,1,43.07,0" transform="translate(388.676 8403.93)" fill="#e3fbf9"/>
      <g id="Grupo_1179902" data-name="Grupo 1179902" transform="translate(383.746 8399)">
        <g id="Grupo_1179905" data-name="Grupo 1179905" clip-path="url(#clip-path)">
          <path id="Trazado_999618" data-name="Trazado 999618" d="M48,0A48,48,0,1,1,0,48,48,48,0,0,1,48,0" fill="none"/>
          <path id="Trazado_999619" data-name="Trazado 999619" d="M3.75,59A3.75,3.75,0,1,1,0,62.75,3.75,3.75,0,0,1,3.75,59" transform="translate(0 -14.75)" fill="#0f654d"/>
          <path id="Trazado_999620" data-name="Trazado 999620" d="M19.75,19A3.75,3.75,0,1,1,16,22.75,3.75,3.75,0,0,1,19.75,19" transform="translate(-4 -4.75)" fill="#0f654d"/>
          <path id="Trazado_999621" data-name="Trazado 999621" d="M49,94A45.051,45.051,0,0,1,4,49H6.25A42.75,42.75,0,1,0,17.806,19.768l-1.641-1.539A45,45,0,1,1,49,94" transform="translate(-1 -1)" fill="#0f654d"/>
          <rect id="Rectángulo_456268" data-name="Rectángulo 456268" width="96" height="96" fill="none"/>
          <rect id="Rectángulo_456269" data-name="Rectángulo 456269" width="96" height="96" fill="none"/>
        </g>
      </g>
      <g id="Grupo_1179903" data-name="Grupo 1179903" transform="translate(458.745 8474.508) rotate(180)">
        <g id="Grupo_1099618" data-name="Grupo 1099618" transform="translate(0 0)">
          <rect id="Rectángulo_401104" data-name="Rectángulo 401104" width="54.153" height="54.806" transform="translate(0)" fill="none"/>
        </g>
      </g>
    </g>
    <g id="_x30_3" transform="translate(1215.149 4393.149)">
      <path id="Trazado_1030358" data-name="Trazado 1030358" d="M16.214,17v5.214H11Z" transform="translate(6.643 11.072)" fill="#085b55"/>
      <path id="Trazado_1030359" data-name="Trazado 1030359" d="M7.214,2,2,7.214H7.214Z" fill="#085b55"/>
      <path id="Trazado_1030360" data-name="Trazado 1030360" d="M14.167,2H8.952V7.214A1.738,1.738,0,0,1,7.214,8.952H2V19.381a1.738,1.738,0,0,0,1.738,1.738H7.214V36.762A1.738,1.738,0,0,0,8.952,38.5H15.9V35.024H10.691v-13.9h3.476A1.738,1.738,0,0,0,15.9,19.381V3.738A1.738,1.738,0,0,0,14.167,2ZM13.3,19.381H4.607a.869.869,0,0,1,0-1.738H13.3a.869.869,0,1,1,0,1.738Zm0-3.476H4.607a.869.869,0,1,1,0-1.738H13.3a.869.869,0,1,1,0,1.738Zm0-3.476H4.607a.869.869,0,0,1,0-1.738H13.3a.869.869,0,1,1,0,1.738Z" fill="#085b55"/>
      <path id="Trazado_1030361" data-name="Trazado 1030361" d="M27,2V7.214h5.214Z" transform="translate(18.453)" fill="#085b55"/>
      <path id="Trazado_1030362" data-name="Trazado 1030362" d="M28.952,7.214V2H23.738A1.738,1.738,0,0,0,22,3.738V19.381a1.738,1.738,0,0,0,1.738,1.738h3.476v13.9H22V38.5h6.952a1.738,1.738,0,0,0,1.738-1.738V21.119h3.476A1.738,1.738,0,0,0,35.9,19.381V8.952H30.691A1.738,1.738,0,0,1,28.952,7.214ZM33.3,19.381H24.607a.869.869,0,1,1,0-1.738H33.3a.869.869,0,1,1,0,1.738Zm0-3.476H24.607a.869.869,0,1,1,0-1.738H33.3a.869.869,0,1,1,0,1.738Zm.869-4.345a.869.869,0,0,1-.869.869H24.607a.869.869,0,0,1,0-1.738H33.3A.869.869,0,0,1,34.167,11.56Z" transform="translate(14.762)" fill="#085b55"/>
      <path id="Trazado_1030363" data-name="Trazado 1030363" d="M24.167,2H13.738A1.738,1.738,0,0,0,12,3.738V19.381a1.738,1.738,0,0,0,1.738,1.738h3.476v5.214h3.476V21.119h3.476A1.738,1.738,0,0,0,25.9,19.381V3.738A1.738,1.738,0,0,0,24.167,2ZM23.3,15.9H14.607a.869.869,0,1,1,0-1.738H23.3a.869.869,0,1,1,0,1.738Zm0-3.476H14.607a.869.869,0,0,1,0-1.738H23.3a.869.869,0,1,1,0,1.738Zm0-3.476H14.607a.869.869,0,0,1,0-1.738H23.3a.869.869,0,1,1,0,1.738Z" transform="translate(7.381)" fill="#085b55"/>
      <path id="Trazado_1030364" data-name="Trazado 1030364" d="M26.643,17H17.952v5.214a1.738,1.738,0,0,1-1.738,1.738H11v13.9A1.738,1.738,0,0,0,12.738,39.6h13.9a1.738,1.738,0,0,0,1.738-1.738V18.738A1.738,1.738,0,0,0,26.643,17Zm-1.863,8.267-5.214,8.691a.868.868,0,0,1-.638.415.9.9,0,0,1-.107.007.869.869,0,0,1-.614-.255L14.73,30.649a.869.869,0,0,1,1.229-1.229l2.69,2.69,4.642-7.737a.869.869,0,0,1,1.49.895Z" transform="translate(6.643 11.072)" fill="#085b55"/>
    </g>
  </g>
</svg>
