<svg xmlns="http://www.w3.org/2000/svg" xmlns:xlink="http://www.w3.org/1999/xlink" width="98" height="98" viewBox="0 0 98 98">
  <defs>
    <clipPath id="clip-path">
      <rect id="Rectángulo_456312" data-name="Rectángulo 456312" width="98" height="98" transform="translate(0.059 0.059)" fill="none"/>
    </clipPath>
  </defs>
  <g id="Grupo_1185400" data-name="Grupo 1185400" transform="translate(-307.117 -10093.059)">
    <g id="Grupo_1179968" data-name="Grupo 1179968" transform="translate(307.059 10093)">
      <g id="Grupo_1179959" data-name="Grupo 1179959" clip-path="url(#clip-path)">
        <path id="Trazado_999654" data-name="Trazado 999654" d="M1.5,5.146H81.261A12.087,12.087,0,0,1,93.377,17.2V96.585H13.616A12.087,12.087,0,0,1,1.5,84.527Z" transform="translate(0.014 0.025)" fill="#fff"/>
      </g>
      <g id="Grupo_1179960" data-name="Grupo 1179960">
        <g id="Grupo_1179956" data-name="Grupo 1179956" clip-path="url(#clip-path)">
          <path id="Trazado_999651" data-name="Trazado 999651" d="M92.229,30a5.024,5.024,0,1,1-5.048,5.024A5.037,5.037,0,0,1,92.229,30" transform="translate(0.84 0.145)" fill="#19538d"/>
          <path id="Trazado_999652" data-name="Trazado 999652" d="M63.229,0a5.024,5.024,0,1,1-5.048,5.024A5.037,5.037,0,0,1,63.229,0" transform="translate(0.56 0)" fill="#19538d"/>
          <path id="Trazado_999653" data-name="Trazado 999653" d="M93.377,35.144V96.585H13.616A12.087,12.087,0,0,1,1.5,84.527V5.146H64.459" transform="translate(0.014 0.025)" fill="none" stroke="#19538d" stroke-miterlimit="10" stroke-width="3"/>
        </g>
      </g>
    </g>
    <g id="Grupo_1179969" data-name="Grupo 1179969" transform="translate(322.757 10111.315)">
      <rect id="Rectángulo_456311" data-name="Rectángulo 456311" width="64.131" height="64.594" transform="translate(0 -0.257)" fill="#fff"/>
      <g id="Grupo_1185408" data-name="Grupo 1185408" transform="translate(-619.938 -8108.695)">
        <g id="g525521" transform="translate(619.938 8118.438)">
          <path id="path525497" d="M293.593,224A3.615,3.615,0,0,0,290,227.593V266.4a3.615,3.615,0,0,0,3.593,3.593h56.052a3.615,3.615,0,0,0,3.593-3.593V227.593A3.615,3.615,0,0,0,349.645,224Zm-.719,8.623h57.489V266.4a.7.7,0,0,1-.719.719H293.593a.7.7,0,0,1-.719-.719Z" transform="translate(-290 -224)" fill="#19538d"/>
          <path id="path620507" d="M316.246,246A3.266,3.266,0,0,0,313,249.246v1.3a3.266,3.266,0,0,0,3.246,3.246h15.581a3.266,3.266,0,0,0,3.246-3.246v-1.3A3.266,3.266,0,0,0,331.827,246Z" transform="translate(-280.083 -213.548)" fill="#19538d"/>
          <path id="path620505" d="M316.246,239A3.266,3.266,0,0,0,313,242.246v1.3a3.266,3.266,0,0,0,3.246,3.246h15.581a3.266,3.266,0,0,0,3.246-3.246v-1.3A3.266,3.266,0,0,0,331.827,239Z" transform="translate(-280.083 -215.636)" fill="#19538d"/>
          <path id="path620503" d="M297.246,239A3.266,3.266,0,0,0,294,242.246v10.387a3.266,3.266,0,0,0,3.246,3.246h15.581a3.266,3.266,0,0,0,3.246-3.246V242.246A3.266,3.266,0,0,0,312.827,239Z" transform="translate(-285.752 -215.636)" fill="#19538d"/>
          <path id="path620498" d="M297.246,232A3.266,3.266,0,0,0,294,235.246v1.3a3.266,3.266,0,0,0,3.246,3.246H337.5a3.266,3.266,0,0,0,3.246-3.246v-1.3A3.266,3.266,0,0,0,337.5,232Z" transform="translate(-285.752 -219.114)" fill="#19538d"/>
        </g>
      </g>
    </g>
  </g>
</svg>
