<svg xmlns="http://www.w3.org/2000/svg" xmlns:xlink="http://www.w3.org/1999/xlink" width="150" height="150" viewBox="0 0 150 150">
  <defs>
    <clipPath id="clip-path">
      <rect id="Rectángulo_456312" data-name="Rectángulo 456312" width="150" height="150" fill="none"/>
    </clipPath>
    <clipPath id="clip-path-3">
      <path id="path2013" d="M0-682.665H89.407v89.407H0Z" transform="translate(0 682.665)" fill="#19538d"/>
    </clipPath>
  </defs>
  <g id="Grupo_1185373" data-name="Grupo 1185373" transform="translate(-307.059 -10093)">
    <g id="Grupo_1179968" data-name="Grupo 1179968" transform="translate(-115 658)">
      <g id="Grupo_1179959" data-name="Grupo 1179959" transform="translate(422.059 9435)" clip-path="url(#clip-path)">
        <path id="Trazado_999654" data-name="Trazado 999654" d="M1.5,5.146H123.437A18.479,18.479,0,0,1,141.96,23.58V144.937H20.022A18.479,18.479,0,0,1,1.5,126.5Z" transform="translate(0.815 2.76)" fill="#fff"/>
      </g>
      <g id="Grupo_1179960" data-name="Grupo 1179960" transform="translate(422.059 9435)">
        <g id="Grupo_1179956" data-name="Grupo 1179956" clip-path="url(#clip-path)">
          <path id="Trazado_999651" data-name="Trazado 999651" d="M94.9,30a7.681,7.681,0,1,1-7.718,7.681A7.7,7.7,0,0,1,94.9,30" transform="translate(47.384 16.085)" fill="#19538d"/>
          <path id="Trazado_999652" data-name="Trazado 999652" d="M65.9,0a7.681,7.681,0,1,1-7.718,7.681A7.7,7.7,0,0,1,65.9,0" transform="translate(31.622 0)" fill="#19538d"/>
          <path id="Trazado_999653" data-name="Trazado 999653" d="M141.96,51.007v93.93H20.022A18.479,18.479,0,0,1,1.5,126.5V5.146H97.75" transform="translate(0.815 2.76)" fill="none" stroke="#19538d" stroke-miterlimit="10" stroke-width="4"/>
        </g>
      </g>
    </g>
    <g id="Grupo_1179969" data-name="Grupo 1179969" transform="translate(331.059 10121)">
      <rect id="Rectángulo_456311" data-name="Rectángulo 456311" width="98.042" height="98.75" fill="#fff"/>
      <g id="g1983" transform="translate(4 687.666)">
        <g id="g1985" transform="translate(13.158 -647.669)">
          <path id="path1987" d="M-112.972,7.068a2.112,2.112,0,0,1-1.5-.62,2.118,2.118,0,0,1,0-3L-98.3-12.713a2.118,2.118,0,0,1,3,0,2.118,2.118,0,0,1,0,3L-111.474,6.448A2.112,2.112,0,0,1-112.972,7.068Z" transform="translate(115.09 13.333)" fill="#19538d"/>
        </g>
        <g id="g1989" transform="translate(13.158 -638.204)">
          <path id="path1991" d="M-4.08-2.4h-7.138a2.118,2.118,0,0,1-2.118-2.118v-6.7a2.118,2.118,0,0,1,2.118-2.118A2.118,2.118,0,0,1-9.1-11.215v4.582h5.02A2.118,2.118,0,0,1-1.962-4.514,2.118,2.118,0,0,1-4.08-2.4Z" transform="translate(13.336 13.333)" fill="#19538d"/>
        </g>
        <g id="g1993" transform="translate(37.842 -613.142)">
          <path id="path1995" d="M-1.334-9.841H-11.587a1.746,1.746,0,0,1-1.746-1.746,1.746,1.746,0,0,1,1.746-1.746H-1.334A1.746,1.746,0,0,1,.412-11.587,1.746,1.746,0,0,1-1.334-9.841Z" transform="translate(13.333 13.333)" fill="#19538d"/>
        </g>
        <g id="g1997" transform="translate(43.934 -617.303)">
          <path id="path1999" d="M-13.278-63.371a1.741,1.741,0,0,1-1.235-.512,1.746,1.746,0,0,1,0-2.47l2.671-2.671-2.926-2.927a1.746,1.746,0,0,1,0-2.47,1.746,1.746,0,0,1,2.47,0l4.161,4.162a1.746,1.746,0,0,1,0,2.469l-3.906,3.905A1.741,1.741,0,0,1-13.278-63.371Z" transform="translate(15.279 74.93)" fill="#19538d"/>
        </g>
        <g id="g2001" transform="translate(70.164 -646.377)">
          <path id="path2003" d="M-11.3-98.916a2.033,2.033,0,0,1-2.032-2.033v-16.124a2.033,2.033,0,0,1,2.032-2.033,2.033,2.033,0,0,1,2.032,2.033v16.124A2.033,2.033,0,0,1-11.3-98.916Z" transform="translate(13.333 119.105)" fill="#19538d"/>
        </g>
        <g id="g2005" transform="translate(65.32 -646.377)">
          <path id="path2007" d="M-72.9-34.25a2.026,2.026,0,0,1-1.437-.6,2.033,2.033,0,0,1,0-2.875l4.844-4.843a2.032,2.032,0,0,1,2.874,0l4.546,4.547a2.033,2.033,0,0,1,0,2.874,2.032,2.032,0,0,1-2.874,0l-3.109-3.109-3.407,3.406A2.026,2.026,0,0,1-72.9-34.25Z" transform="translate(74.929 43.159)" fill="#19538d"/>
        </g>
        <g id="g2009" transform="translate(0 -682.665)">
          <g id="g2011" transform="translate(0 0)" clip-path="url(#clip-path-3)">
            <g id="g2017" transform="translate(66.439 15.106)">
              <path id="path2019" d="M-8.8-25.672a2.073,2.073,0,0,1-1.475-.611l-2.544-2.544a1.746,1.746,0,0,1,0-2.47,1.746,1.746,0,0,1,2.47,0L-8.8-29.747l4.334-4.334a1.746,1.746,0,0,1,2.47,0,1.746,1.746,0,0,1,0,2.47l-5.328,5.328a2.07,2.07,0,0,1-1.474.611Z" transform="translate(13.333 34.592)" fill="#19538d"/>
            </g>
            <g id="g2021" transform="translate(0 59.043)">
              <path id="path2023" d="M-184.88-146.073h-22.188a5.681,5.681,0,0,1-5.674-5.675v-12.675a5.681,5.681,0,0,1,5.674-5.674h22.188a5.681,5.681,0,0,1,5.674,5.674v12.675A5.681,5.681,0,0,1-184.88-146.073ZM-207.068-166.6a2.184,2.184,0,0,0-2.182,2.182v12.675a2.184,2.184,0,0,0,2.182,2.182h22.188a2.184,2.184,0,0,0,2.182-2.182v-12.675a2.184,2.184,0,0,0-2.182-2.182Z" transform="translate(212.742 170.097)" fill="#19538d"/>
            </g>
            <g id="g2025" transform="translate(55.87 58.868)">
              <path id="path2027" d="M-184.88-149.55h-22.188a5.681,5.681,0,0,1-5.674-5.675v-13.2a5.681,5.681,0,0,1,5.674-5.674h22.188a5.681,5.681,0,0,1,5.674,5.674v13.2A5.681,5.681,0,0,1-184.88-149.55ZM-207.068-170.6a2.184,2.184,0,0,0-2.182,2.182v13.2a2.184,2.184,0,0,0,2.182,2.182h22.188a2.185,2.185,0,0,0,2.182-2.182v-13.2a2.184,2.184,0,0,0-2.182-2.182Z" transform="translate(212.742 174.097)" fill="#19538d"/>
            </g>
            <g id="g2029" transform="translate(59.132 5.992)">
              <path id="path2031" d="M-87.234-161.137a13.162,13.162,0,0,1-13.147-13.147A13.162,13.162,0,0,1-87.234-187.43a13.162,13.162,0,0,1,13.147,13.147A13.162,13.162,0,0,1-87.234-161.137Zm0-22.8a9.665,9.665,0,0,0-9.654,9.654,9.665,9.665,0,0,0,9.654,9.654,9.665,9.665,0,0,0,9.654-9.654A9.665,9.665,0,0,0-87.234-183.938Z" transform="translate(100.381 187.43)" fill="#19538d"/>
            </g>
            <g id="g2033" transform="translate(0 7.164)">
              <path id="path2035" d="M-94.906,11.214h-39.958a5.681,5.681,0,0,1-5.674-5.674v-13.2a5.681,5.681,0,0,1,5.674-5.674h12.732a1.746,1.746,0,0,1,1.746,1.746,1.746,1.746,0,0,1-1.746,1.746h-12.732a2.184,2.184,0,0,0-2.182,2.182V5.54a2.184,2.184,0,0,0,2.182,2.182h39.958A2.184,2.184,0,0,0-92.724,5.54v-13.2a2.184,2.184,0,0,0-2.182-2.182h-11.865a1.746,1.746,0,0,1-1.746-1.746,1.746,1.746,0,0,1,1.746-1.746h11.865a5.681,5.681,0,0,1,5.674,5.674V5.54A5.681,5.681,0,0,1-94.906,11.214Z" transform="translate(140.538 13.333)" fill="#19538d"/>
            </g>
            <g id="g2037" transform="translate(26.177 8.91)">
              <path id="path2039" fill="#19538d"/>
            </g>
            <g id="g2041" transform="translate(9.535 17.691)">
              <path id="path2043" d="M16.275-9.841H-11.587a1.746,1.746,0,0,1-1.746-1.746,1.746,1.746,0,0,1,1.746-1.746H16.275a1.746,1.746,0,0,1,1.746,1.746A1.746,1.746,0,0,1,16.275-9.841Z" transform="translate(13.333 13.333)" fill="#19538d"/>
            </g>
            <g id="g2045" transform="translate(8.829 69.395)">
              <path id="path2047" d="M.461-9.841H-11.587a1.746,1.746,0,0,1-1.746-1.746,1.746,1.746,0,0,1,1.746-1.746H.461a1.746,1.746,0,0,1,1.746,1.746A1.746,1.746,0,0,1,.461-9.841Z" transform="translate(13.333 13.333)" fill="#19538d"/>
            </g>
            <g id="g2049" transform="translate(64.869 69.395)">
              <path id="path2051" d="M.461-9.841H-11.587a1.746,1.746,0,0,1-1.746-1.746,1.746,1.746,0,0,1,1.746-1.746H.461a1.746,1.746,0,0,1,1.746,1.746A1.746,1.746,0,0,1,.461-9.841Z" transform="translate(13.333 13.333)" fill="#19538d"/>
            </g>
          </g>
        </g>
      </g>
    </g>
  </g>
</svg>
