<svg xmlns="http://www.w3.org/2000/svg" xmlns:xlink="http://www.w3.org/1999/xlink" width="135" height="135" viewBox="0 0 135 135">
  <defs>
    <clipPath id="clip-path">
      <rect id="Rectángulo_456267" data-name="Rectángulo 456267" width="135" height="135" fill="none"/>
    </clipPath>
  </defs>
  <g id="Grupo_1185377" data-name="Grupo 1185377" transform="translate(518.746 8534) rotate(180)">
    <path id="Trazado_999622" data-name="Trazado 999622" d="M63.063,0A63.063,63.063,0,1,1,0,63.063,63.064,63.064,0,0,1,63.063,0" transform="translate(388.183 8403.437)" fill="#e1f5ff"/>
    <g id="Grupo_1179902" data-name="Grupo 1179902" transform="translate(383.746 8399)">
      <g id="Grupo_1179905" data-name="Grupo 1179905" clip-path="url(#clip-path)">
        <path id="Trazado_999618" data-name="Trazado 999618" d="M67.5,0A67.5,67.5,0,1,1,0,67.5,67.5,67.5,0,0,1,67.5,0" fill="none"/>
        <path id="Trazado_999619" data-name="Trazado 999619" d="M5.273,59A5.273,5.273,0,1,1,0,64.273,5.274,5.274,0,0,1,5.273,59" transform="translate(0 3.227)" fill="#19538d"/>
        <path id="Trazado_999620" data-name="Trazado 999620" d="M21.273,19A5.273,5.273,0,1,1,16,24.273,5.274,5.274,0,0,1,21.273,19" transform="translate(0.875 1.039)" fill="#19538d"/>
        <path id="Trazado_999621" data-name="Trazado 999621" d="M67.281,130.562A63.353,63.353,0,0,1,4,67.281H7.164A60.117,60.117,0,1,0,23.415,26.174L21.107,24.01A63.281,63.281,0,1,1,67.281,130.562" transform="translate(0.219 0.219)" fill="#19538d"/>
        <rect id="Rectángulo_456268" data-name="Rectángulo 456268" width="135" height="135" fill="none"/>
        <rect id="Rectángulo_456269" data-name="Rectángulo 456269" width="135" height="135" fill="none"/>
      </g>
    </g>
    <g id="Grupo_1179903" data-name="Grupo 1179903" transform="translate(487.492 8503.673) rotate(180)">
      <g id="Grupo_1099618" data-name="Grupo 1099618" transform="translate(0 0)">
        <rect id="Rectángulo_401104" data-name="Rectángulo 401104" width="72.901" height="73.779" transform="translate(0)" fill="none"/>
      </g>
      <g id="Layer_4" data-name="Layer 4" transform="translate(7.512 1.772)">
        <path id="Trazado_1030343" data-name="Trazado 1030343" d="M18.366,16.193H30.193L16,2V13.828A2.366,2.366,0,0,0,18.366,16.193Z" transform="translate(19.118 0)" fill="#19538d"/>
        <path id="Trazado_1030344" data-name="Trazado 1030344" d="M49.311,20.924H37.483a7.1,7.1,0,0,1-7.1-7.1V2H6.731A4.731,4.731,0,0,0,2,6.731V63.5a4.731,4.731,0,0,0,4.731,4.731H34.976l2.957-11.828L49.311,44.982ZM17.873,45.266a2.375,2.375,0,1,1-3.359,3.359L9.783,43.894a2.366,2.366,0,0,1,0-3.359L14.514,35.8a2.375,2.375,0,0,1,3.359,3.359L14.8,42.214Zm12.4-9.462L25.537,50a2.366,2.366,0,0,1-2.247,1.68,2.957,2.957,0,0,1-.757-.118,2.366,2.366,0,0,1-1.49-3l4.731-14.193a2.371,2.371,0,0,1,4.495,1.514Zm11.26,8.019L36.8,48.554a2.375,2.375,0,1,1-3.359-3.359l3.075-2.981-3.075-3.052A2.375,2.375,0,0,1,36.8,35.8l4.731,4.731a2.366,2.366,0,0,1,0,3.359Z" transform="translate(0 0)" fill="#19538d"/>
        <path id="Trazado_1030345" data-name="Trazado 1030345" d="M32.378,18a7.1,7.1,0,0,0-5.015,2.082L25.21,22.234l7.1,7.1,2.153-2.153a7.1,7.1,0,0,0,2.082-5.015A4.163,4.163,0,0,0,32.378,18Z" transform="translate(31.694 21.849)" fill="#19538d"/>
        <path id="Trazado_1030346" data-name="Trazado 1030346" d="M20.366,32.541,18,42l9.462-2.366L38.793,28.307l-7.1-7.1Z" transform="translate(21.849 26.232)" fill="#19538d"/>
      </g>
    </g>
  </g>
</svg>
