<svg xmlns="http://www.w3.org/2000/svg" xmlns:xlink="http://www.w3.org/1999/xlink" width="98" height="98" viewBox="0 0 98 98">
  <defs>
    <clipPath id="clip-path">
      <rect id="Rectángulo_456312" data-name="Rectángulo 456312" width="98" height="98" transform="translate(0.059 0.059)" fill="none"/>
    </clipPath>
  </defs>
  <g id="Grupo_1185500" data-name="Grupo 1185500" transform="translate(-307.117 -10093.059)">
    <g id="Grupo_1179968" data-name="Grupo 1179968" transform="translate(307.059 10093)">
      <g id="Grupo_1179959" data-name="Grupo 1179959" clip-path="url(#clip-path)">
        <path id="Trazado_999654" data-name="Trazado 999654" d="M1.5,5.146H81.261A12.087,12.087,0,0,1,93.377,17.2V96.585H13.616A12.087,12.087,0,0,1,1.5,84.527Z" transform="translate(0.014 0.025)" fill="#fff"/>
      </g>
      <g id="Grupo_1179960" data-name="Grupo 1179960">
        <g id="Grupo_1179956" data-name="Grupo 1179956" clip-path="url(#clip-path)">
          <path id="Trazado_999651" data-name="Trazado 999651" d="M92.229,30a5.024,5.024,0,1,1-5.048,5.024A5.037,5.037,0,0,1,92.229,30" transform="translate(0.84 0.145)" fill="#19538d"/>
          <path id="Trazado_999652" data-name="Trazado 999652" d="M63.229,0a5.024,5.024,0,1,1-5.048,5.024A5.037,5.037,0,0,1,63.229,0" transform="translate(0.56 0)" fill="#19538d"/>
          <path id="Trazado_999653" data-name="Trazado 999653" d="M93.377,35.144V96.585H13.616A12.087,12.087,0,0,1,1.5,84.527V5.146H64.459" transform="translate(0.014 0.025)" fill="none" stroke="#19538d" stroke-miterlimit="10" stroke-width="3"/>
        </g>
      </g>
    </g>
    <g id="Grupo_1179969" data-name="Grupo 1179969" transform="translate(322.757 10111.315)">
      <rect id="Rectángulo_456311" data-name="Rectángulo 456311" width="64.131" height="64.594" fill="#fff"/>
      <g id="lupa_1_" data-name="lupa (1)" transform="translate(3.746 5.171)">
        <path id="Trazado_1031276" data-name="Trazado 1031276" d="M53.656,8.635A6.651,6.651,0,0,0,47.021,2H8.635A6.651,6.651,0,0,0,2,8.635v5.209H53.656ZM10.537,12.245a2.161,2.161,0,0,1-.022-4.323h.022a2.161,2.161,0,1,1,0,4.323Zm6.333,0a2.161,2.161,0,0,1-.022-4.323h.022a2.161,2.161,0,1,1,0,4.323Zm6.333,0a2.161,2.161,0,0,1-.022-4.323H23.2a2.161,2.161,0,0,1,0,4.323Z" transform="translate(0 0)" fill="#19538d"/>
        <path id="Trazado_1031277" data-name="Trazado 1031277" d="M28.93,20.243a18.573,18.573,0,0,1,24.726-1.362V9.48H2V38.334a6.651,6.651,0,0,0,6.635,6.635H27.569A18.549,18.549,0,0,1,28.93,20.244Z" transform="translate(0 8.687)" fill="#19538d"/>
        <path id="Trazado_1031278" data-name="Trazado 1031278" d="M48.015,44.959l-8.342-8.342.006-.007a14.285,14.285,0,1,0-3.069,3.069l.007-.006,8.342,8.342a2.161,2.161,0,0,0,3.056-3.056Z" transform="translate(13.869 13.869)" fill="#19538d"/>
      </g>
    </g>
  </g>
</svg>
