<svg xmlns="http://www.w3.org/2000/svg" xmlns:xlink="http://www.w3.org/1999/xlink" width="135" height="135" viewBox="0 0 135 135">
  <defs>
    <clipPath id="clip-path">
      <rect id="Rectángulo_456267" data-name="Rectángulo 456267" width="135" height="135" fill="none"/>
    </clipPath>
  </defs>
  <g id="Grupo_1185497" data-name="Grupo 1185497" transform="translate(518.746 8534) rotate(180)">
    <path id="Trazado_999622" data-name="Trazado 999622" d="M63.063,0A63.063,63.063,0,1,1,0,63.063,63.064,63.064,0,0,1,63.063,0" transform="translate(388.183 8403.437)" fill="#e1f5ff"/>
    <g id="Grupo_1179902" data-name="Grupo 1179902" transform="translate(383.746 8399)">
      <g id="Grupo_1179905" data-name="Grupo 1179905" clip-path="url(#clip-path)">
        <path id="Trazado_999618" data-name="Trazado 999618" d="M67.5,0A67.5,67.5,0,1,1,0,67.5,67.5,67.5,0,0,1,67.5,0" fill="none"/>
        <path id="Trazado_999619" data-name="Trazado 999619" d="M5.273,59A5.273,5.273,0,1,1,0,64.273,5.274,5.274,0,0,1,5.273,59" transform="translate(0 3.227)" fill="#19538d"/>
        <path id="Trazado_999620" data-name="Trazado 999620" d="M21.273,19A5.273,5.273,0,1,1,16,24.273,5.274,5.274,0,0,1,21.273,19" transform="translate(0.875 1.039)" fill="#19538d"/>
        <path id="Trazado_999621" data-name="Trazado 999621" d="M67.281,130.562A63.353,63.353,0,0,1,4,67.281H7.164A60.117,60.117,0,1,0,23.415,26.174L21.107,24.01A63.281,63.281,0,1,1,67.281,130.562" transform="translate(0.219 0.219)" fill="#19538d"/>
        <rect id="Rectángulo_456268" data-name="Rectángulo 456268" width="135" height="135" fill="none"/>
        <rect id="Rectángulo_456269" data-name="Rectángulo 456269" width="135" height="135" fill="none"/>
      </g>
    </g>
    <g id="algoritmo_3_" data-name="algoritmo (3)" transform="translate(487.75 8504) rotate(180)">
      <g id="Grupo_1185234" data-name="Grupo 1185234" transform="translate(0.004 0)">
        <path id="Trazado_1031365" data-name="Trazado 1031365" d="M73,45.055V40.778a6.423,6.423,0,0,0-6.416-6.416H64.449V19.391a6.423,6.423,0,0,0-6.416-6.416H54.325L37.786.429a2.13,2.13,0,0,0-2.565,0L18.683,12.975H14.975a6.423,6.423,0,0,0-6.416,6.416V34.362H6.42A6.423,6.423,0,0,0,0,40.778v4.277a6.406,6.406,0,0,0,4.277,6.022v8.949H2.143A2.137,2.137,0,0,0,0,62.165v8.7A2.137,2.137,0,0,0,2.143,73H10.7a2.137,2.137,0,0,0,2.139-2.139v-8.7A2.137,2.137,0,0,0,10.7,60.026H8.559V51.471H25.811v8.555H23.672a2.137,2.137,0,0,0-2.139,2.139v8.7A2.137,2.137,0,0,0,23.672,73h8.555a2.137,2.137,0,0,0,2.139-2.139v-8.7a2.137,2.137,0,0,0-2.139-2.139H30.088V51.077a6.406,6.406,0,0,0,4.277-6.022h4.277a6.406,6.406,0,0,0,4.277,6.022v8.949H40.781a2.137,2.137,0,0,0-2.139,2.139v8.7A2.137,2.137,0,0,0,40.781,73h8.555a2.137,2.137,0,0,0,2.139-2.139v-8.7a2.137,2.137,0,0,0-2.139-2.139H47.2V51.471H64.449v8.555H62.311a2.137,2.137,0,0,0-2.139,2.139v8.7A2.137,2.137,0,0,0,62.311,73h8.555A2.137,2.137,0,0,0,73,70.862v-8.7a2.137,2.137,0,0,0-2.139-2.139H68.726V51.077A6.406,6.406,0,0,0,73,45.055ZM60.172,34.362H45.058a6.423,6.423,0,0,0-6.416,6.416H34.365a6.423,6.423,0,0,0-6.416-6.416H12.836V19.391a2.14,2.14,0,0,1,2.139-2.139h3.709l16.538,12.4a2.134,2.134,0,0,0,2.565,0l16.538-12.4h3.709a2.14,2.14,0,0,1,2.139,2.139V34.362Z" transform="translate(-0.004 0)" fill="#19538d"/>
      </g>
    </g>
  </g>
</svg>
