<svg xmlns="http://www.w3.org/2000/svg" xmlns:xlink="http://www.w3.org/1999/xlink" width="98" height="98" viewBox="0 0 98 98">
  <defs>
    <clipPath id="clip-path">
      <rect id="Rectángulo_456312" data-name="Rectángulo 456312" width="98" height="98" transform="translate(0.059 0.059)" fill="none"/>
    </clipPath>
  </defs>
  <g id="Grupo_1185489" data-name="Grupo 1185489" transform="translate(-307.117 -10093.059)">
    <g id="Grupo_1179968" data-name="Grupo 1179968" transform="translate(307.059 10093)">
      <g id="Grupo_1179959" data-name="Grupo 1179959" clip-path="url(#clip-path)">
        <path id="Trazado_999654" data-name="Trazado 999654" d="M1.5,5.146H81.261A12.087,12.087,0,0,1,93.377,17.2V96.585H13.616A12.087,12.087,0,0,1,1.5,84.527Z" transform="translate(0.014 0.025)" fill="#fff"/>
      </g>
      <g id="Grupo_1179960" data-name="Grupo 1179960">
        <g id="Grupo_1179956" data-name="Grupo 1179956" clip-path="url(#clip-path)">
          <path id="Trazado_999651" data-name="Trazado 999651" d="M92.229,30a5.024,5.024,0,1,1-5.048,5.024A5.037,5.037,0,0,1,92.229,30" transform="translate(0.84 0.145)" fill="#19538d"/>
          <path id="Trazado_999652" data-name="Trazado 999652" d="M63.229,0a5.024,5.024,0,1,1-5.048,5.024A5.037,5.037,0,0,1,63.229,0" transform="translate(0.56 0)" fill="#19538d"/>
          <path id="Trazado_999653" data-name="Trazado 999653" d="M93.377,35.144V96.585H13.616A12.087,12.087,0,0,1,1.5,84.527V5.146H64.459" transform="translate(0.014 0.025)" fill="none" stroke="#19538d" stroke-miterlimit="10" stroke-width="3"/>
        </g>
      </g>
    </g>
    <g id="Grupo_1179969" data-name="Grupo 1179969" transform="translate(322.757 10111.315)">
      <rect id="Rectángulo_456311" data-name="Rectángulo 456311" width="64.131" height="64.594" fill="#fff"/>
      <g id="calculadora_1_" data-name="calculadora (1)" transform="translate(-0.731 -0.28)">
        <path id="Trazado_1031366" data-name="Trazado 1031366" d="M56.235,5.323H48.782V4.259A4.259,4.259,0,0,0,44.523,0H18.97a4.259,4.259,0,0,0-4.259,4.259V5.323H7.259A4.259,4.259,0,0,0,3,9.582V48.976a4.259,4.259,0,0,0,4.259,4.259H21.1v3.194H16.841a3.194,3.194,0,0,0-3.194,3.194v2.129a2.129,2.129,0,0,0,2.129,2.129H47.717a2.129,2.129,0,0,0,2.129-2.129V59.623a3.194,3.194,0,0,0-3.194-3.194H42.394V53.235H56.235a4.259,4.259,0,0,0,4.259-4.259V9.582A4.259,4.259,0,0,0,56.235,5.323Zm-7.453,6.388h5.323V38.329H48.19a4.215,4.215,0,0,0,.592-2.129ZM16.841,4.259A2.129,2.129,0,0,1,18.97,2.129H44.523a2.129,2.129,0,0,1,2.129,2.129V36.2a2.129,2.129,0,0,1-2.129,2.129H18.97A2.129,2.129,0,0,1,16.841,36.2ZM15.3,38.329H9.388V11.712h5.323V36.2a4.215,4.215,0,0,0,.592,2.129ZM7.259,7.453h7.453V9.582H9.388a2.129,2.129,0,0,0-2.129,2.129V38.329a2.129,2.129,0,0,0,2.129,2.129H54.105a2.129,2.129,0,0,0,2.129-2.129V11.712a2.129,2.129,0,0,0-2.129-2.129H48.782V7.453h7.453a2.129,2.129,0,0,1,2.129,2.129V42.588H5.129V9.582A2.129,2.129,0,0,1,7.259,7.453Zm40.458,52.17v2.129H15.776V59.623a1.065,1.065,0,0,1,1.065-1.065H46.653A1.065,1.065,0,0,1,47.717,59.623Zm-7.453-3.194H23.229V53.235H40.264Zm15.97-5.323H7.259a2.129,2.129,0,0,1-2.129-2.129V44.717H58.364v4.259A2.129,2.129,0,0,1,56.235,51.105Z" fill="#19538d"/>
        <path id="Trazado_1031367" data-name="Trazado 1031367" d="M20.129,14.647H41.423a2.129,2.129,0,0,0,2.129-2.129V6.129A2.129,2.129,0,0,0,41.423,4H20.129A2.129,2.129,0,0,0,18,6.129v6.388A2.129,2.129,0,0,0,20.129,14.647ZM36.1,6.129l-4.791,6.388H25.453l4.791-6.388Zm5.323,6.388H33.97l4.791-6.388h2.662ZM20.129,6.129h7.453l-4.791,6.388H20.129Z" transform="translate(0.97 0.259)" fill="#19538d"/>
        <path id="Trazado_1031368" data-name="Trazado 1031368" d="M31.194,44H29.065a1.065,1.065,0,1,0,0,2.129h2.129a1.065,1.065,0,1,0,0-2.129Z" transform="translate(1.617 2.847)" fill="#19538d"/>
        <path id="Trazado_1031369" data-name="Trazado 1031369" d="M-8.025-11.442V-.507H-9.406V-9.716L-12.192-8.7V-9.948l3.951-1.494Zm11.22,9.8V-.507H-3.923V-1.5L-.36-5.466A14.447,14.447,0,0,0,.659-6.71a3.948,3.948,0,0,0,.508-.919,2.455,2.455,0,0,0,.146-.833,2.134,2.134,0,0,0-.22-.975,1.71,1.71,0,0,0-.646-.7A1.933,1.933,0,0,0-.584-10.4a2.369,2.369,0,0,0-1.206.28,1.763,1.763,0,0,0-.721.781,2.639,2.639,0,0,0-.239,1.15H-4.132a3.536,3.536,0,0,1,.4-1.681,3,3,0,0,1,1.2-1.214,3.88,3.88,0,0,1,1.949-.452,3.94,3.94,0,0,1,1.763.362A2.64,2.64,0,0,1,2.3-10.153a2.912,2.912,0,0,1,.392,1.527,3.088,3.088,0,0,1-.161.967,5.192,5.192,0,0,1-.441.975,8.1,8.1,0,0,1-.65.956q-.37.471-.788.926L-2.258-1.642ZM6.721-6.624h.986a2.621,2.621,0,0,0,1.2-.243,1.642,1.642,0,0,0,.71-.665,1.922,1.922,0,0,0,.235-.952,2.377,2.377,0,0,0-.209-1.053,1.4,1.4,0,0,0-.627-.642A2.3,2.3,0,0,0,7.954-10.4a2.221,2.221,0,0,0-1.027.228,1.69,1.69,0,0,0-.695.646,1.884,1.884,0,0,0-.25.986H4.6a2.822,2.822,0,0,1,.418-1.509,3,3,0,0,1,1.176-1.083,3.69,3.69,0,0,1,1.759-.4,4.019,4.019,0,0,1,1.725.347,2.6,2.6,0,0,1,1.15,1.031,3.248,3.248,0,0,1,.411,1.7,2.33,2.33,0,0,1-.19.878,2.672,2.672,0,0,1-.59.87,3.045,3.045,0,0,1-1.034.661A4.047,4.047,0,0,1,7.9-5.788H6.721Zm0,1.135v-.829H7.9a5.1,5.1,0,0,1,1.718.246,2.747,2.747,0,0,1,1.072.657,2.368,2.368,0,0,1,.553.9,3.11,3.11,0,0,1,.161.975,3.349,3.349,0,0,1-.258,1.352,2.815,2.815,0,0,1-.725,1,3.137,3.137,0,0,1-1.094.62,4.3,4.3,0,0,1-1.367.209,4.308,4.308,0,0,1-1.333-.2,3.414,3.414,0,0,1-1.1-.586,2.683,2.683,0,0,1-.747-.949A2.959,2.959,0,0,1,4.51-3.382H5.892a1.924,1.924,0,0,0,.25.993,1.693,1.693,0,0,0,.717.661,2.42,2.42,0,0,0,1.1.235,2.509,2.509,0,0,0,1.094-.22,1.575,1.575,0,0,0,.71-.668,2.291,2.291,0,0,0,.25-1.128,2.014,2.014,0,0,0-.284-1.117,1.7,1.7,0,0,0-.8-.65,3.206,3.206,0,0,0-1.221-.213Z" transform="translate(31.766 30.851)" fill="#19538d"/>
      </g>
    </g>
  </g>
</svg>
