<svg xmlns="http://www.w3.org/2000/svg" xmlns:xlink="http://www.w3.org/1999/xlink" width="98" height="98" viewBox="0 0 98 98">
  <defs>
    <clipPath id="clip-path">
      <rect id="Rectángulo_456312" data-name="Rectángulo 456312" width="98" height="98" transform="translate(0.059 0.059)" fill="none"/>
    </clipPath>
  </defs>
  <g id="Grupo_1185490" data-name="Grupo 1185490" transform="translate(-307.117 -10093.059)">
    <g id="Grupo_1179968" data-name="Grupo 1179968" transform="translate(307.059 10093)">
      <g id="Grupo_1179959" data-name="Grupo 1179959" clip-path="url(#clip-path)">
        <path id="Trazado_999654" data-name="Trazado 999654" d="M1.5,5.146H81.261A12.087,12.087,0,0,1,93.377,17.2V96.585H13.616A12.087,12.087,0,0,1,1.5,84.527Z" transform="translate(0.014 0.025)" fill="#fff"/>
      </g>
      <g id="Grupo_1179960" data-name="Grupo 1179960">
        <g id="Grupo_1179956" data-name="Grupo 1179956" clip-path="url(#clip-path)">
          <path id="Trazado_999651" data-name="Trazado 999651" d="M92.229,30a5.024,5.024,0,1,1-5.048,5.024A5.037,5.037,0,0,1,92.229,30" transform="translate(0.84 0.145)" fill="#19538d"/>
          <path id="Trazado_999652" data-name="Trazado 999652" d="M63.229,0a5.024,5.024,0,1,1-5.048,5.024A5.037,5.037,0,0,1,63.229,0" transform="translate(0.56 0)" fill="#19538d"/>
          <path id="Trazado_999653" data-name="Trazado 999653" d="M93.377,35.144V96.585H13.616A12.087,12.087,0,0,1,1.5,84.527V5.146H64.459" transform="translate(0.014 0.025)" fill="none" stroke="#19538d" stroke-miterlimit="10" stroke-width="3"/>
        </g>
      </g>
    </g>
    <g id="Grupo_1179969" data-name="Grupo 1179969" transform="translate(322.757 10111.315)">
      <rect id="Rectángulo_456311" data-name="Rectángulo 456311" width="64.131" height="64.594" fill="#fff"/>
      <g id="Icons" transform="translate(0.64 2.909)">
        <path id="Trazado_1031370" data-name="Trazado 1031370" d="M57.518,4.036H50.455V3.027A3.027,3.027,0,0,0,47.427,0H35.318a3.027,3.027,0,0,0-3.027,3.027V4.036H28.255V3.027A3.027,3.027,0,0,0,25.227,0H13.118a3.027,3.027,0,0,0-3.027,3.027V4.036H3.027A3.027,3.027,0,0,0,0,7.064V45.409a3.027,3.027,0,0,0,3.027,3.027H22.2v2.542l-4.667,3.734a1.009,1.009,0,0,0-.378.788v2.018a3.027,3.027,0,0,0,3.027,3.027H40.364a3.027,3.027,0,0,0,3.027-3.027V55.5a1.009,1.009,0,0,0-.378-.788l-4.667-3.734V48.436H57.518a3.027,3.027,0,0,0,3.027-3.027V7.064a3.027,3.027,0,0,0-3.027-3.027Zm-44.4,32.291H25.227A3.027,3.027,0,0,0,28.255,33.3V10.091h4.036V33.3a3.027,3.027,0,0,0,3.027,3.027H47.427A3.027,3.027,0,0,0,50.455,33.3V10.091h4.036V38.345H6.055V10.091h4.036V33.3A3.027,3.027,0,0,0,13.118,36.327Zm21.191-33.3a1.009,1.009,0,0,1,1.009-1.009H47.427a1.009,1.009,0,0,1,1.009,1.009H47.427a1.009,1.009,0,1,0,0,2.018h1.009V7.064H47.427a1.009,1.009,0,1,0,0,2.018h1.009V11.1H47.427a1.009,1.009,0,1,0,0,2.018h1.009v2.018H47.427a1.009,1.009,0,1,0,0,2.018h1.009v2.018H47.427a1.009,1.009,0,1,0,0,2.018h1.009v2.018H47.427a1.009,1.009,0,1,0,0,2.018h1.009v2.018H47.427a1.009,1.009,0,1,0,0,2.018h1.009v2.018H47.427a1.009,1.009,0,1,0,0,2.018h1.009a1.009,1.009,0,0,1-1.009,1.009H35.318A1.009,1.009,0,0,1,34.309,33.3ZM32.291,6.055V8.073H28.255V6.055ZM12.109,3.027a1.009,1.009,0,0,1,1.009-1.009H25.227a1.009,1.009,0,0,1,1.009,1.009H25.227a1.009,1.009,0,0,0,0,2.018h1.009V7.064H25.227a1.009,1.009,0,0,0,0,2.018h1.009V11.1H25.227a1.009,1.009,0,0,0,0,2.018h1.009v2.018H25.227a1.009,1.009,0,0,0,0,2.018h1.009v2.018H25.227a1.009,1.009,0,0,0,0,2.018h1.009v2.018H25.227a1.009,1.009,0,0,0,0,2.018h1.009v2.018H25.227a1.009,1.009,0,0,0,0,2.018h1.009v2.018H25.227a1.009,1.009,0,0,0,0,2.018h1.009a1.009,1.009,0,0,1-1.009,1.009H13.118A1.009,1.009,0,0,1,12.109,33.3ZM39.5,54.491H21.039l2.523-2.018H36.982Zm.859,4.036H20.182a1.009,1.009,0,0,1-1.009-1.009V56.509h22.2v1.009A1.009,1.009,0,0,1,40.364,58.527Zm-4.036-8.073H24.218V48.436H36.327Zm22.2-5.045a1.009,1.009,0,0,1-1.009,1.009H3.027a1.009,1.009,0,0,1-1.009-1.009V7.064A1.009,1.009,0,0,1,3.027,6.055h7.064V8.073H6.055a2.018,2.018,0,0,0-2.018,2.018V38.345a2.018,2.018,0,0,0,2.018,2.018H54.491a2.018,2.018,0,0,0,2.018-2.018V10.091a2.018,2.018,0,0,0-2.018-2.018H50.455V6.055h7.064a1.009,1.009,0,0,1,1.009,1.009Z" transform="translate(0 0)" fill="#19538d"/>
        <path id="Trazado_1031371" data-name="Trazado 1031371" d="M32.045,42H28.009a1.009,1.009,0,1,0,0,2.018h4.036a1.009,1.009,0,1,0,0-2.018Z" transform="translate(0.245 0.382)" fill="#19538d"/>
        <path id="Trazado_1031372" data-name="Trazado 1031372" d="M16.018,12.073h3.027a2.018,2.018,0,0,0,2.018-2.018V6.018A2.018,2.018,0,0,0,19.045,4H16.018A2.018,2.018,0,0,0,14,6.018v4.036A2.018,2.018,0,0,0,16.018,12.073Zm0-6.055h3.027v4.036H16.018Z" transform="translate(0.127 0.036)" fill="#19538d"/>
        <path id="Trazado_1031373" data-name="Trazado 1031373" d="M16.018,22.073h3.027a2.018,2.018,0,0,0,2.018-2.018V16.018A2.018,2.018,0,0,0,19.045,14H16.018A2.018,2.018,0,0,0,14,16.018v4.036A2.018,2.018,0,0,0,16.018,22.073Zm0-6.055h3.027v4.036H16.018Z" transform="translate(0.127 0.127)" fill="#19538d"/>
        <path id="Trazado_1031374" data-name="Trazado 1031374" d="M16.018,32.073h3.027a2.018,2.018,0,0,0,2.018-2.018V26.018A2.018,2.018,0,0,0,19.045,24H16.018A2.018,2.018,0,0,0,14,26.018v4.036A2.018,2.018,0,0,0,16.018,32.073Zm0-6.055h3.027v4.036H16.018Z" transform="translate(0.127 0.218)" fill="#19538d"/>
        <path id="Trazado_1031375" data-name="Trazado 1031375" d="M38.018,12.073h3.027a2.018,2.018,0,0,0,2.018-2.018V6.018A2.018,2.018,0,0,0,41.045,4H38.018A2.018,2.018,0,0,0,36,6.018v4.036A2.018,2.018,0,0,0,38.018,12.073Zm0-6.055h3.027v4.036H38.018Z" transform="translate(0.327 0.036)" fill="#19538d"/>
        <path id="Trazado_1031376" data-name="Trazado 1031376" d="M38.018,22.073h3.027a2.018,2.018,0,0,0,2.018-2.018V16.018A2.018,2.018,0,0,0,41.045,14H38.018A2.018,2.018,0,0,0,36,16.018v4.036A2.018,2.018,0,0,0,38.018,22.073Zm0-6.055h3.027v4.036H38.018Z" transform="translate(0.327 0.127)" fill="#19538d"/>
        <path id="Trazado_1031377" data-name="Trazado 1031377" d="M38.018,32.073h3.027a2.018,2.018,0,0,0,2.018-2.018V26.018A2.018,2.018,0,0,0,41.045,24H38.018A2.018,2.018,0,0,0,36,26.018v4.036A2.018,2.018,0,0,0,38.018,32.073Zm0-6.055h3.027v4.036H38.018Z" transform="translate(0.327 0.218)" fill="#19538d"/>
      </g>
    </g>
  </g>
</svg>
