<svg xmlns="http://www.w3.org/2000/svg" width="129" height="127" viewBox="0 0 129 127">
  <g id="Grupo_1185420" data-name="Grupo 1185420" transform="translate(-409 -5570)">
    <rect id="Rectángulo_459089" data-name="Rectángulo 459089" width="129" height="127" transform="translate(409 5570)" fill="#68eae0"/>
    <path id="Trazado_1031871" data-name="Trazado 1031871" d="M19,18h81.211a12.336,12.336,0,0,1,12.336,12.336v81.211H31.336A12.336,12.336,0,0,1,19,99.211Z" transform="translate(407.662 5568.799)" fill="#fff"/>
    <path id="Trazado_1031872" data-name="Trazado 1031872" d="M109.821,42.854a5.14,5.14,0,1,1-5.14,5.14,5.14,5.14,0,0,1,5.14-5.14" transform="translate(410.059 5569.494)" fill="#19538d"/>
    <path id="Trazado_1031873" data-name="Trazado 1031873" d="M80.821,12.854a5.14,5.14,0,1,1-5.14,5.14,5.14,5.14,0,0,1,5.14-5.14" transform="translate(409.248 5568.655)" fill="#19538d"/>
    <path id="Trazado_1031874" data-name="Trazado 1031874" d="M112.547,48.689v62.857H31.336A12.336,12.336,0,0,1,19,99.211V18H83.1" transform="translate(407.662 5568.799)" fill="none" stroke="#19538d" stroke-miterlimit="10" stroke-width="3"/>
    <g id="Grupo_1185417" data-name="Grupo 1185417" transform="translate(29.177 -2828.195)">
      <g id="Grupo_1099776" data-name="Grupo 1099776" transform="translate(412.387 8428.148)">
        <g id="Grupo_1099618" data-name="Grupo 1099618" transform="translate(0 0.618)">
          <rect id="Rectángulo_401104" data-name="Rectángulo 401104" width="66.379" height="67.179" transform="translate(0)" fill="none"/>
        </g>
        <g id="OUTLINE" transform="translate(1.247 0)">
          <path id="Trazado_1030528" data-name="Trazado 1030528" d="M294.725,96.552l1.8-1.8,7.863-1.573-2.952-2.214A14.915,14.915,0,0,0,292.543,88h-.472L280,100.071v.472a14.916,14.916,0,0,0,2.965,8.894l2.214,2.953,1.573-7.864,2.94-2.94,10.6,10.6a3.559,3.559,0,1,0,5.033-5.033Zm-1.719-6.263a12.648,12.648,0,0,1,5.815,1.678l-3.42.684-2.288,2.288-2.378-2.378ZM284.651,103.4l-.684,3.42a12.649,12.649,0,0,1-1.678-5.815l3.412-3.412,2.378,2.378Zm2.663-7.42,1.808-1.808,2.378,2.378-1.808,1.808Zm16.4,14.587a1.28,1.28,0,0,1-1.808,0l-10.6-10.6,1.808-1.808,10.6,10.6A1.278,1.278,0,0,1,303.709,110.569Z" transform="translate(-249.213 -77.738)" fill="#19538d"/>
          <path id="Trazado_1030529" data-name="Trazado 1030529" d="M122.153,21.7h-3.421V19.421A3.425,3.425,0,0,0,115.311,16H67.421A3.425,3.425,0,0,0,64,19.421V70.928a3.4,3.4,0,0,0,1,2.419L75.068,83.413a3.4,3.4,0,0,0,2.419,1H108.47c1.714,0,10.262-.165,10.262-3.421V65.031c0-3.256-8.549-3.421-10.262-3.421s-10.262.165-10.262,3.421V80.994a1.781,1.781,0,0,0,.418,1.14H77.683V74.153a3.425,3.425,0,0,0-3.421-3.421H66.28V19.421a1.142,1.142,0,0,1,1.14-1.14h47.891a1.142,1.142,0,0,1,1.14,1.14V21.7H92.506a3.425,3.425,0,0,0-3.421,3.421V52.488a3.425,3.425,0,0,0,3.421,3.421h10.93L107.33,59.8l3.893-3.893h5.229v5.7h2.281v-5.7h3.421a3.425,3.425,0,0,0,3.421-3.421V25.122A3.425,3.425,0,0,0,122.153,21.7ZM108.47,63.891c4.039,0,6.688.65,7.671,1.14-.983.49-3.632,1.14-7.671,1.14s-6.688-.65-7.671-1.14C101.781,64.541,104.431,63.891,108.47,63.891Zm-7.982,3.474a29.844,29.844,0,0,0,15.964,0V72.82c-.586.49-3.382,1.333-7.982,1.333s-7.4-.843-7.982-1.333Zm0,7.982a29.844,29.844,0,0,0,15.964,0V80.8c-.59.49-3.387,1.331-7.982,1.331s-7.391-.842-7.982-1.331ZM74.262,73.013a1.142,1.142,0,0,1,1.14,1.14v6.369l-7.509-7.509Zm49.031-20.525a1.142,1.142,0,0,1-1.14,1.14H110.278l-2.949,2.949-2.949-2.949H92.506a1.142,1.142,0,0,1-1.14-1.14V25.122a1.142,1.142,0,0,1,1.14-1.14h29.647a1.142,1.142,0,0,1,1.14,1.14Z" transform="translate(-64 -16)" fill="#19538d"/>
          <rect id="Rectángulo_458332" data-name="Rectángulo 458332" width="23.573" height="1.473" transform="translate(5.893 44.199)" fill="#19538d"/>
          <rect id="Rectángulo_458333" data-name="Rectángulo 458333" width="23.573" height="1.473" transform="translate(5.893 48.619)" fill="#19538d"/>
          <rect id="Rectángulo_458334" data-name="Rectángulo 458334" width="13.26" height="2.947" transform="translate(16.206 54.512)" fill="#19538d"/>
          <path id="Trazado_1030530" data-name="Trazado 1030530" d="M104,171.384h17.1V152h-6.842v17.1h-2.281V157.7H105.14v11.4H104Zm12.543-17.1h2.281V169.1h-2.281Zm-9.122,5.7H109.7V169.1h-2.281Z" transform="translate(-98.299 -132.616)" fill="#19538d"/>
          <path id="Trazado_1030531" data-name="Trazado 1030531" d="M112.851,74.463l2.281,2.281,8.788-8.788-1.613-1.613-7.175,7.176-2.281-2.281-6.508,6.507,1.613,1.613Z" transform="translate(-100.308 -59.168)" fill="#19538d"/>
        </g>
      </g>
    </g>
  </g>
</svg>
