<svg xmlns="http://www.w3.org/2000/svg" xmlns:xlink="http://www.w3.org/1999/xlink" width="96" height="96" viewBox="0 0 96 96">
  <defs>
    <clipPath id="clip-path">
      <rect id="Rectángulo_456267" data-name="Rectángulo 456267" width="96" height="96" fill="none"/>
    </clipPath>
  </defs>
  <g id="Grupo_1185394" data-name="Grupo 1185394" transform="translate(8310 7293)">
    <g id="Grupo_1185388" data-name="Grupo 1185388" transform="translate(-9503 -11665)">
      <g id="Grupo_1185384" data-name="Grupo 1185384" transform="translate(1672.746 12867) rotate(180)">
        <path id="Trazado_999622" data-name="Trazado 999622" d="M43.07,0A43.07,43.07,0,1,1,0,43.07,43.071,43.071,0,0,1,43.07,0" transform="translate(388.676 8403.93)" fill="#e3fbf9"/>
        <g id="Grupo_1179902" data-name="Grupo 1179902" transform="translate(383.746 8399)">
          <g id="Grupo_1179905" data-name="Grupo 1179905" clip-path="url(#clip-path)">
            <path id="Trazado_999618" data-name="Trazado 999618" d="M48,0A48,48,0,1,1,0,48,48,48,0,0,1,48,0" fill="none"/>
            <path id="Trazado_999619" data-name="Trazado 999619" d="M3.75,59A3.75,3.75,0,1,1,0,62.75,3.75,3.75,0,0,1,3.75,59" transform="translate(0 -14.75)" fill="#0f654d"/>
            <path id="Trazado_999620" data-name="Trazado 999620" d="M19.75,19A3.75,3.75,0,1,1,16,22.75,3.75,3.75,0,0,1,19.75,19" transform="translate(-4 -4.75)" fill="#0f654d"/>
            <path id="Trazado_999621" data-name="Trazado 999621" d="M49,94A45.051,45.051,0,0,1,4,49H6.25A42.75,42.75,0,1,0,17.806,19.768l-1.641-1.539A45,45,0,1,1,49,94" transform="translate(-1 -1)" fill="#0f654d"/>
            <rect id="Rectángulo_456268" data-name="Rectángulo 456268" width="96" height="96" fill="none"/>
            <rect id="Rectángulo_456269" data-name="Rectángulo 456269" width="96" height="96" fill="none"/>
          </g>
        </g>
        <g id="Grupo_1179903" data-name="Grupo 1179903" transform="translate(458.745 8474.508) rotate(180)">
          <g id="Grupo_1099618" data-name="Grupo 1099618" transform="translate(0 0)">
            <rect id="Rectángulo_401104" data-name="Rectángulo 401104" width="54.153" height="54.806" transform="translate(0)" fill="none"/>
          </g>
        </g>
      </g>
    </g>
    <g id="_x35_4" transform="translate(-8285.726 -7270.711)">
      <path id="Trazado_1030416" data-name="Trazado 1030416" d="M1,15.4H47.563V7.791A6.8,6.8,0,0,0,40.773,1H7.791A6.8,6.8,0,0,0,1,7.791ZM21.6,6.277a1.98,1.98,0,0,1,2.115.427,1.921,1.921,0,0,1,0,2.736,1.9,1.9,0,0,1-2.736,0A1.94,1.94,0,0,1,21.6,6.277ZM13.223,6.7a1.933,1.933,0,0,1,2.736,0,1.934,1.934,0,1,1-2.736,0Zm-7.78,0a2.007,2.007,0,0,1,2.736,0,1.934,1.934,0,1,1-2.736,0Z" fill="#085b55"/>
      <path id="Trazado_1030417" data-name="Trazado 1030417" d="M1,31.917a6.8,6.8,0,0,0,6.791,6.791H40.773a6.8,6.8,0,0,0,6.791-6.791V10.42H1ZM30.432,20.509a1.617,1.617,0,0,1,0-2.328,1.651,1.651,0,0,1,2.328,0l2.93,2.93a1.651,1.651,0,0,1,0,2.328l-2.93,2.949a1.639,1.639,0,0,1-2.328,0,1.617,1.617,0,0,1,0-2.328L32.2,22.274Zm-9.216,8.847,3.861-13.794a1.65,1.65,0,0,1,3.182.873L24.4,30.248a1.652,1.652,0,0,1-3.182-.893Zm-8.323-6.965,2.93-2.93a1.646,1.646,0,0,1,2.328,2.328l-1.766,1.766,1.766,1.785a1.646,1.646,0,0,1-2.328,2.328l-2.93-2.949a1.617,1.617,0,0,1,0-2.328Z" transform="translate(0 8.856)" fill="#085b55"/>
    </g>
  </g>
</svg>
