<svg xmlns="http://www.w3.org/2000/svg" xmlns:xlink="http://www.w3.org/1999/xlink" width="150" height="150" viewBox="0 0 150 150">
  <defs>
    <clipPath id="clip-path">
      <rect id="Rectángulo_456312" data-name="Rectángulo 456312" width="150" height="150" transform="translate(0 -0.187)" fill="none"/>
    </clipPath>
  </defs>
  <g id="Grupo_1185423" data-name="Grupo 1185423" transform="translate(-421.649 -9434.404)">
    <g id="Grupo_1179959" data-name="Grupo 1179959" transform="translate(421.649 9434.591)" clip-path="url(#clip-path)">
      <path id="Trazado_999654" data-name="Trazado 999654" d="M1.5,5.146H122.6A18.352,18.352,0,0,1,141,23.454V143.978H19.9A18.352,18.352,0,0,1,1.5,125.671Z" transform="translate(1.22 3.126)" fill="#fff"/>
    </g>
    <g id="Grupo_1179960" data-name="Grupo 1179960" transform="translate(421.649 9434.591)">
      <g id="Grupo_1179956" data-name="Grupo 1179956" transform="translate(0 0)" clip-path="url(#clip-path)">
        <path id="Trazado_999651" data-name="Trazado 999651" d="M94.846,30a7.628,7.628,0,1,1-7.665,7.628A7.647,7.647,0,0,1,94.846,30" transform="translate(46.882 16.19)" fill="#19538d"/>
        <path id="Trazado_999652" data-name="Trazado 999652" d="M65.846,0a7.628,7.628,0,1,1-7.665,7.628A7.647,7.647,0,0,1,65.846,0" transform="translate(31.427 0.421)" fill="#19538d"/>
        <path id="Trazado_999653" data-name="Trazado 999653" d="M141,50.692v93.286H19.9A18.352,18.352,0,0,1,1.5,125.671V5.146H97.09" transform="translate(1.22 3.126)" fill="none" stroke="#19538d" stroke-miterlimit="10" stroke-width="4"/>
      </g>
    </g>
    <g id="Grupo_1179961" data-name="Grupo 1179961" transform="translate(440.692 9461.083)">
      <rect id="Rectángulo_456311" data-name="Rectángulo 456311" width="101.71" height="102.444" fill="#fff"/>
      <g id="precios" transform="translate(2.938 5.678)">
        <path id="Trazado_1030472" data-name="Trazado 1030472" d="M31.78,262.672a1.567,1.567,0,0,0,2.214,0l7.83-7.83-2.214-2.214-6.723,6.723L3.782,230.246l17.684-17.684-2.214-2.214L.461,229.139a1.567,1.567,0,0,0,0,2.214Zm0,0" transform="translate(-0.002 -169.169)" fill="#19538d"/>
        <path id="Trazado_1030473" data-name="Trazado 1030473" d="M295.289,32.719,292.157,4.532a1.567,1.567,0,0,0-1.385-1.385L262.585.015a1.583,1.583,0,0,0-1.279.45L250.344,11.426l2.214,2.214,10.43-10.43,26.2,2.909,2.909,26.2-6.145,6.145L282.98,18.446a4.719,4.719,0,1,0-3.149.119l2.422,16.286L260.388,12.992a1.565,1.565,0,0,0-2.214,0l-7.83,7.83,2.214,2.214,6.723-6.723L278.99,36.023,275.4,39.614l2.214,2.214,4.7-4.7a1.52,1.52,0,0,0,.223-.333l.658,4.42L280.1,44.312l2.214,2.214,1.453-1.454.995,6.674a5.29,5.29,0,1,0,10.431-1.715l-2.882-13.5L294.839,34a1.566,1.566,0,0,0,.45-1.279ZM281.2,12.534a1.566,1.566,0,1,1-1.566,1.566A1.566,1.566,0,0,1,281.2,12.534Zm10.92,38.134a2.158,2.158,0,1,1-4.263.655l-1.333-9.006,3.15-3.15Zm0,0" transform="translate(-201.34 -0.002)" fill="#19538d"/>
        <path id="Trazado_1030474" data-name="Trazado 1030474" d="M58.352,269.33,68.53,259.152l2.214,2.214L60.566,271.544Zm0,0" transform="translate(-46.93 -208.421)" fill="#19538d"/>
        <path id="Trazado_1030475" data-name="Trazado 1030475" d="M83.137,294.127l10.178-10.178,2.215,2.214L85.351,296.341Zm0,0" transform="translate(-66.863 -228.364)" fill="#19538d"/>
        <path id="Trazado_1030476" data-name="Trazado 1030476" d="M107.941,336.294l5.95-5.95,2.215,2.214-5.951,5.95Zm0,0" transform="translate(-86.812 -265.677)" fill="#19538d"/>
        <path id="Trazado_1030477" data-name="Trazado 1030477" d="M132.742,368.174l4.229-4.228,2.214,2.214-4.228,4.229Zm0,0" transform="translate(-106.758 -292.702)" fill="#19538d"/>
        <path id="Trazado_1030478" data-name="Trazado 1030478" d="M157.543,397.483l3.132-3.131,2.214,2.214-3.131,3.131Zm0,0" transform="translate(-126.705 -317.156)" fill="#19538d"/>
        <path id="Trazado_1030479" data-name="Trazado 1030479" d="M185.041,234.317a24.894,24.894,0,0,0,14.814-4.9l11.294,11.294a4.888,4.888,0,0,0,6.912-6.912l-11.555-11.555-.2.2a25.03,25.03,0,1,0-21.264,11.869Zm30.805,1.7a1.756,1.756,0,0,1-2.483,2.483l-11.1-11.095a25.227,25.227,0,0,0,2.379-2.588Zm-30.805-48.68a21.923,21.923,0,1,1-21.923,21.923A21.924,21.924,0,0,1,185.041,187.338Zm0,0" transform="translate(-128.667 -148.185)" fill="#19538d"/>
        <path id="Trazado_1030480" data-name="Trazado 1030480" d="M210.792,253.587A18.792,18.792,0,1,0,192,234.8,18.792,18.792,0,0,0,210.792,253.587Zm0-34.451a15.66,15.66,0,1,1-15.66,15.66A15.659,15.659,0,0,1,210.792,219.136Zm0,0" transform="translate(-154.417 -173.719)" fill="#19538d"/>
        <path id="Trazado_1030481" data-name="Trazado 1030481" d="M263.83,266.8H260.7a1.566,1.566,0,0,1-1.566-1.566H256a4.7,4.7,0,0,0,4.7,4.7v3.132h3.132v-3.132a4.7,4.7,0,0,0,4.7-4.7v-1.566a4.7,4.7,0,0,0-4.7-4.7H260.7a1.566,1.566,0,0,1-1.566-1.566v-1.566a1.566,1.566,0,0,1,1.566-1.566h3.132a1.566,1.566,0,0,1,1.566,1.566h3.132a4.7,4.7,0,0,0-4.7-4.7V248H260.7v3.132a4.7,4.7,0,0,0-4.7,4.7V257.4a4.7,4.7,0,0,0,4.7,4.7h3.132a1.566,1.566,0,0,1,1.566,1.566v1.566A1.566,1.566,0,0,1,263.83,266.8Zm0,0" transform="translate(-205.889 -199.455)" fill="#19538d"/>
        <path id="Trazado_1030482" data-name="Trazado 1030482" d="M7.83,37.587H18.291l10.553,7.537a1.561,1.561,0,0,0,.91.293,1.583,1.583,0,0,0,.85-.251,1.565,1.565,0,0,0,.684-1.629l-1.19-5.95h9.051a7.84,7.84,0,0,0,7.83-7.83V7.834A7.839,7.839,0,0,0,39.149,0H7.83A7.839,7.839,0,0,0,0,7.834V29.757a7.84,7.84,0,0,0,7.83,7.83ZM3.132,7.834a4.7,4.7,0,0,1,4.7-4.7H39.149a4.7,4.7,0,0,1,4.7,4.7V29.757a4.7,4.7,0,0,1-4.7,4.7H28.187a1.565,1.565,0,0,0-1.535,1.879l.783,3.948L19.7,34.754a1.555,1.555,0,0,0-.905-.3H7.83a4.7,4.7,0,0,1-4.7-4.7Zm0,0" fill="#19538d"/>
        <path id="Trazado_1030483" data-name="Trazado 1030483" d="M33.566,63.494H66.451V60.362H35.132V56.185l3.132-4.175L41.709,56.6A1.666,1.666,0,0,0,43,57.23a1.566,1.566,0,0,0,1.261-.7l5.1-7.651,6.486,7.786a1.577,1.577,0,0,0,1.2.562,1.185,1.185,0,0,0,.148,0,1.565,1.565,0,0,0,1.221-.8l7.83-14.094-2.737-1.519L56.8,52.914,50.43,45.272a1.539,1.539,0,0,0-1.289-.57,1.567,1.567,0,0,0-1.218.7l-5.036,7.558L39.516,48.46a1.621,1.621,0,0,0-2.5,0l-1.879,2.506V40H32V61.928a1.566,1.566,0,0,0,1.566,1.566Zm0,0" transform="translate(-25.736 -32.17)" fill="#19538d"/>
      </g>
    </g>
  </g>
</svg>
