<svg xmlns="http://www.w3.org/2000/svg" xmlns:xlink="http://www.w3.org/1999/xlink" width="96" height="96" viewBox="0 0 96 96">
  <defs>
    <clipPath id="clip-path">
      <rect id="Rectángulo_456267" data-name="Rectángulo 456267" width="96" height="96" fill="none"/>
    </clipPath>
  </defs>
  <g id="Grupo_1185410" data-name="Grupo 1185410" transform="translate(8310 7293)">
    <g id="Grupo_1185388" data-name="Grupo 1185388" transform="translate(-9503 -11665)">
      <g id="Grupo_1185384" data-name="Grupo 1185384" transform="translate(1672.746 12867) rotate(180)">
        <path id="Trazado_999622" data-name="Trazado 999622" d="M43.07,0A43.07,43.07,0,1,1,0,43.07,43.071,43.071,0,0,1,43.07,0" transform="translate(388.676 8403.93)" fill="#e3fbf9"/>
        <g id="Grupo_1179902" data-name="Grupo 1179902" transform="translate(383.746 8399)">
          <g id="Grupo_1179905" data-name="Grupo 1179905" clip-path="url(#clip-path)">
            <path id="Trazado_999618" data-name="Trazado 999618" d="M48,0A48,48,0,1,1,0,48,48,48,0,0,1,48,0" fill="none"/>
            <path id="Trazado_999619" data-name="Trazado 999619" d="M3.75,59A3.75,3.75,0,1,1,0,62.75,3.75,3.75,0,0,1,3.75,59" transform="translate(0 -14.75)" fill="#0f654d"/>
            <path id="Trazado_999620" data-name="Trazado 999620" d="M19.75,19A3.75,3.75,0,1,1,16,22.75,3.75,3.75,0,0,1,19.75,19" transform="translate(-4 -4.75)" fill="#0f654d"/>
            <path id="Trazado_999621" data-name="Trazado 999621" d="M49,94A45.051,45.051,0,0,1,4,49H6.25A42.75,42.75,0,1,0,17.806,19.768l-1.641-1.539A45,45,0,1,1,49,94" transform="translate(-1 -1)" fill="#0f654d"/>
            <rect id="Rectángulo_456268" data-name="Rectángulo 456268" width="96" height="96" fill="none"/>
            <rect id="Rectángulo_456269" data-name="Rectángulo 456269" width="96" height="96" fill="none"/>
          </g>
        </g>
        <g id="Grupo_1179903" data-name="Grupo 1179903" transform="translate(458.745 8474.508) rotate(180)">
          <g id="Grupo_1099618" data-name="Grupo 1099618" transform="translate(0 0)">
            <rect id="Rectángulo_401104" data-name="Rectángulo 401104" width="54.153" height="54.806" transform="translate(0)" fill="none"/>
          </g>
        </g>
      </g>
    </g>
    <g id="editor-de-texto" transform="translate(-8289.676 -7278.994)">
      <g id="Grupo_1184674" data-name="Grupo 1184674" transform="translate(4.087 43.587)">
        <path id="Trazado_1030419" data-name="Trazado 1030419" d="M70.247,422h-7.4A1.85,1.85,0,0,0,61,423.849v7.4a1.85,1.85,0,0,0,1.849,1.849h7.4a1.85,1.85,0,0,0,1.849-1.849v-7.4A1.85,1.85,0,0,0,70.247,422ZM68.4,429.4H64.7v-3.7h3.7Z" transform="translate(-61 -422)" fill="#0f654d"/>
      </g>
      <g id="Grupo_1184675" data-name="Grupo 1184675" transform="translate(4.087 10.051)">
        <path id="Trazado_1030420" data-name="Trazado 1030420" d="M70.247,150h-7.4A1.85,1.85,0,0,0,61,151.849v7.4a1.85,1.85,0,0,0,1.849,1.849h7.4a1.85,1.85,0,0,0,1.849-1.849v-7.4A1.85,1.85,0,0,0,70.247,150ZM68.4,157.4H64.7v-3.7h3.7Z" transform="translate(-61 -150)" fill="#0f654d"/>
      </g>
      <g id="Grupo_1184676" data-name="Grupo 1184676" transform="translate(41.076 10.051)">
        <path id="Trazado_1030421" data-name="Trazado 1030421" d="M370.247,150h-7.4A1.85,1.85,0,0,0,361,151.849v7.4a1.85,1.85,0,0,0,1.849,1.849h7.4a1.85,1.85,0,0,0,1.849-1.849v-7.4A1.85,1.85,0,0,0,370.247,150Zm-1.849,7.4h-3.7v-3.7h3.7Z" transform="translate(-361 -150)" fill="#0f654d"/>
      </g>
      <g id="Grupo_1184677" data-name="Grupo 1184677" transform="translate(41.076 43.587)">
        <path id="Trazado_1030422" data-name="Trazado 1030422" d="M370.247,422h-7.4A1.85,1.85,0,0,0,361,423.849v7.4a1.85,1.85,0,0,0,1.849,1.849h7.4a1.85,1.85,0,0,0,1.849-1.849v-7.4A1.85,1.85,0,0,0,370.247,422Zm-1.849,7.4h-3.7v-3.7h3.7Z" transform="translate(-361 -422)" fill="#0f654d"/>
      </g>
      <g id="Grupo_1184678" data-name="Grupo 1184678" transform="translate(11.485 17.448)">
        <path id="Trazado_1030423" data-name="Trazado 1030423" d="M152.44,217.4a5.555,5.555,0,0,1-5.548-5.548V210H128.4v1.849a5.555,5.555,0,0,1-5.548,5.548H121V232.44h1.849a5.555,5.555,0,0,1,5.548,5.548v5.548h18.494v-5.548a5.555,5.555,0,0,1,5.548-5.548h1.849V217.4Zm-5.548,5.548a1.849,1.849,0,1,1-3.7,0V221.1h-3.7V232.44h1.849a1.849,1.849,0,1,1,0,3.7h-7.4a1.849,1.849,0,0,1,0-3.7H135.8V221.1h-3.7v1.849a1.849,1.849,0,1,1-3.7,0v-3.7a1.85,1.85,0,0,1,1.849-1.849h14.8a1.85,1.85,0,0,1,1.849,1.849Z" transform="translate(-121 -210)" fill="#0f654d"/>
      </g>
    </g>
  </g>
</svg>
