<svg xmlns="http://www.w3.org/2000/svg" xmlns:xlink="http://www.w3.org/1999/xlink" width="96" height="96" viewBox="0 0 96 96">
  <defs>
    <clipPath id="clip-path">
      <rect id="Rectángulo_456267" data-name="Rectángulo 456267" width="96" height="96" fill="none"/>
    </clipPath>
  </defs>
  <g id="Grupo_1185412" data-name="Grupo 1185412" transform="translate(8310 7293)">
    <g id="Grupo_1185388" data-name="Grupo 1185388" transform="translate(-9503 -11665)">
      <g id="Grupo_1185384" data-name="Grupo 1185384" transform="translate(1672.746 12867) rotate(180)">
        <path id="Trazado_999622" data-name="Trazado 999622" d="M43.07,0A43.07,43.07,0,1,1,0,43.07,43.071,43.071,0,0,1,43.07,0" transform="translate(388.676 8403.93)" fill="#e3fbf9"/>
        <g id="Grupo_1179902" data-name="Grupo 1179902" transform="translate(383.746 8399)">
          <g id="Grupo_1179905" data-name="Grupo 1179905" clip-path="url(#clip-path)">
            <path id="Trazado_999618" data-name="Trazado 999618" d="M48,0A48,48,0,1,1,0,48,48,48,0,0,1,48,0" fill="none"/>
            <path id="Trazado_999619" data-name="Trazado 999619" d="M3.75,59A3.75,3.75,0,1,1,0,62.75,3.75,3.75,0,0,1,3.75,59" transform="translate(0 -14.75)" fill="#0f654d"/>
            <path id="Trazado_999620" data-name="Trazado 999620" d="M19.75,19A3.75,3.75,0,1,1,16,22.75,3.75,3.75,0,0,1,19.75,19" transform="translate(-4 -4.75)" fill="#0f654d"/>
            <path id="Trazado_999621" data-name="Trazado 999621" d="M49,94A45.051,45.051,0,0,1,4,49H6.25A42.75,42.75,0,1,0,17.806,19.768l-1.641-1.539A45,45,0,1,1,49,94" transform="translate(-1 -1)" fill="#0f654d"/>
            <rect id="Rectángulo_456268" data-name="Rectángulo 456268" width="96" height="96" fill="none"/>
            <rect id="Rectángulo_456269" data-name="Rectángulo 456269" width="96" height="96" fill="none"/>
          </g>
        </g>
        <g id="Grupo_1179903" data-name="Grupo 1179903" transform="translate(458.745 8474.508) rotate(180)">
          <g id="Grupo_1099618" data-name="Grupo 1099618" transform="translate(0 0)">
            <rect id="Rectángulo_401104" data-name="Rectángulo 401104" width="54.153" height="54.806" transform="translate(0)" fill="none"/>
          </g>
        </g>
      </g>
    </g>
    <g id="Layer_x0020_1" transform="translate(-8327.341 -7273.174)">
      <path id="Trazado_1030424" data-name="Trazado 1030424" d="M68.351,38.933H66.524v2.576H71.8a1.2,1.2,0,0,1,1.2,1.2v6.411a1.2,1.2,0,0,1-1.2,1.2H58.885a1.2,1.2,0,0,1-1.2-1.2V42.707a1.2,1.2,0,0,1,1.2-1.2h5.243V38.933c-1.318,0-2.876.3-3-1.108l-.779-6.351a12.944,12.944,0,0,1-3.835-2.217L50.586,31.8a1.189,1.189,0,0,1-1.528-.569l-.9-1.528-1.558.9v10.9h2.007a1.2,1.2,0,0,1,1.2,1.2v6.411a1.2,1.2,0,0,1-1.2,1.2H42.2a1.2,1.2,0,0,1-1.2-1.2V42.707a1.2,1.2,0,0,1,1.2-1.2h2.007V29.885a1.25,1.25,0,0,1,.659-1.078l2.1-1.168c-.629-1.108-1.648-2.307-.569-3.116l5.153-3.865-.18-2.217a1.2,1.2,0,0,1,1.2-1.2H54.3V12.75a.707.707,0,0,0-.21-.479c-.3-.3-1.2-.18-1.887-.18a3.259,3.259,0,1,1,0-2.4c1.318,0,2.576-.15,3.595.9a3.083,3.083,0,0,1,.9,2.157v4.494h1.857V7.567L56.428,5.44a3.262,3.262,0,1,1,1.708-1.708l2.457,2.486a1.108,1.108,0,0,1,.359.869V17.243h3.176V5.47a3.258,3.258,0,1,1,3.505-.719,3.2,3.2,0,0,1-1.108.719V17.243H69.7V7.088a1.219,1.219,0,0,1,.359-.869l2.486-2.486a3.263,3.263,0,1,1,5.3,1.019,3.224,3.224,0,0,1-3.595.689L72.1,7.567v9.676h1.887V12.75a2.96,2.96,0,0,1,.9-2.157c1.078-1.078,2.217-.9,3.595-.9A3.2,3.2,0,0,1,79.2,8.586,3.264,3.264,0,1,1,81.5,14.158a3.193,3.193,0,0,1-3.026-2.067H77.039l-.479.18a.68.68,0,0,0-.18.479v4.494h1.738a1.2,1.2,0,0,1,1.2,1.2l-.18,2.217,5.153,3.865a1.176,1.176,0,0,1,.33,1.528v.03l-.929,1.558,2.1,1.168a1.222,1.222,0,0,1,.689,1.078V41.509h2.007a1.2,1.2,0,0,1,1.2,1.2v6.411a1.2,1.2,0,0,1-1.2,1.2H82.072a1.183,1.183,0,0,1-1.2-1.2V42.707a1.183,1.183,0,0,1,1.2-1.2h2.007V30.6l-1.588-.9c-.629,1.138-1.168,2.636-2.427,2.1l-5.9-2.546A13.093,13.093,0,0,1,70.3,31.473l-.749,6.411A1.2,1.2,0,0,1,68.351,38.933ZM56.308,19.64a9.112,9.112,0,0,0,18.064,0Z" transform="translate(0 0)" fill="#0f654d"/>
    </g>
  </g>
</svg>
