<svg xmlns="http://www.w3.org/2000/svg" xmlns:xlink="http://www.w3.org/1999/xlink" width="98" height="98" viewBox="0 0 98 98">
  <defs>
    <clipPath id="clip-path">
      <rect id="Rectángulo_456312" data-name="Rectángulo 456312" width="98" height="98" transform="translate(0.059 0.059)" fill="none"/>
    </clipPath>
  </defs>
  <g id="Grupo_1185503" data-name="Grupo 1185503" transform="translate(-307.117 -10093.059)">
    <g id="Grupo_1179968" data-name="Grupo 1179968" transform="translate(307.059 10093)">
      <g id="Grupo_1179959" data-name="Grupo 1179959" clip-path="url(#clip-path)">
        <path id="Trazado_999654" data-name="Trazado 999654" d="M1.5,5.146H81.261A12.087,12.087,0,0,1,93.377,17.2V96.585H13.616A12.087,12.087,0,0,1,1.5,84.527Z" transform="translate(0.014 0.025)" fill="#fff"/>
      </g>
      <g id="Grupo_1179960" data-name="Grupo 1179960">
        <g id="Grupo_1179956" data-name="Grupo 1179956" clip-path="url(#clip-path)">
          <path id="Trazado_999651" data-name="Trazado 999651" d="M92.229,30a5.024,5.024,0,1,1-5.048,5.024A5.037,5.037,0,0,1,92.229,30" transform="translate(0.84 0.145)" fill="#19538d"/>
          <path id="Trazado_999652" data-name="Trazado 999652" d="M63.229,0a5.024,5.024,0,1,1-5.048,5.024A5.037,5.037,0,0,1,63.229,0" transform="translate(0.56 0)" fill="#19538d"/>
          <path id="Trazado_999653" data-name="Trazado 999653" d="M93.377,35.144V96.585H13.616A12.087,12.087,0,0,1,1.5,84.527V5.146H64.459" transform="translate(0.014 0.025)" fill="none" stroke="#19538d" stroke-miterlimit="10" stroke-width="3"/>
        </g>
      </g>
    </g>
    <g id="Grupo_1179969" data-name="Grupo 1179969" transform="translate(322.757 10111.315)">
      <rect id="Rectángulo_456311" data-name="Rectángulo 456311" width="64.131" height="64.594" transform="translate(0.36)" fill="#fff"/>
      <path id="error-humano" d="M47.031,54.416v2.391a3.986,3.986,0,0,1-3.984,3.984H28.7a3.986,3.986,0,0,1-3.984-3.984V54.416H5.594A1.6,1.6,0,0,0,4,56.01V57.6a8.017,8.017,0,0,0,2.327,5.626,7.922,7.922,0,0,0,5.626,2.327H59.8a8.017,8.017,0,0,0,5.626-2.327A7.922,7.922,0,0,0,67.75,57.6V56.01a1.6,1.6,0,0,0-1.594-1.594Zm-3.187,0v2.391a.789.789,0,0,1-.8.8H28.7a.789.789,0,0,1-.8-.8V54.416ZM48.672,8.2,45.82,12.963H11.969a1.612,1.612,0,0,0-1.594,1.61V51.228H5.594V14.572A6.373,6.373,0,0,1,11.969,8.2Zm-4.781,7.969-1.052,1.769a4.1,4.1,0,0,0,3.506,6.2H58.2V51.244H50.266c-.064-2.6-.685-7.491-4.207-10.821a12.213,12.213,0,0,0-4.526-2.693,7.969,7.969,0,1,0-11.284,0,12,12,0,0,0-4.526,2.693c-3.522,3.331-4.144,8.224-4.207,10.821H13.578V16.166ZM24.655,51.228h3.251v-4.8a1.594,1.594,0,1,1,3.187,0v4.8h9.562v-4.8a1.594,1.594,0,1,1,3.187,0v4.8h3.251c-.032-2.04-.478-5.9-3.235-8.511-1.673-1.578-4.207-2.662-7.985-2.662s-6.311,1.084-7.985,2.662C25.133,45.332,24.687,49.172,24.655,51.228Zm41.5-27.954V51.228H61.375V24.119H63.67A4.108,4.108,0,0,0,66.156,23.274ZM35.875,27.306a4.781,4.781,0,1,1-4.781,4.781A4.775,4.775,0,0,1,35.875,27.306ZM22.854,23.179l1.132-1.132a1.606,1.606,0,0,0,0-2.263,1.587,1.587,0,0,0-2.247,0l-1.132,1.132-1.132-1.132a1.6,1.6,0,1,0-2.263,2.263l1.132,1.132L17.212,24.31a1.587,1.587,0,0,0,0,2.247,1.606,1.606,0,0,0,2.263,0l1.132-1.132,1.132,1.132a1.589,1.589,0,0,0,2.247-2.247Zm40.832-2.247H46.33a.88.88,0,0,1-.622-.255.842.842,0,0,1-.255-.622.974.974,0,0,1,.127-.478l8.4-13.993A1.182,1.182,0,0,1,55,5.01a1.225,1.225,0,0,1,1.036.574l8.4,13.993a.961.961,0,0,1,.127.462.89.89,0,0,1-.255.637.842.842,0,0,1-.622.255Zm-8.67-4.781a1.594,1.594,0,1,1-1.594,1.594A1.6,1.6,0,0,1,55.016,16.15ZM53.422,9.775v3.187a1.594,1.594,0,1,0,3.187,0V9.775a1.594,1.594,0,1,0-3.187,0Z" transform="translate(-3.904 -2.879)" fill="#19538d" fill-rule="evenodd"/>
    </g>
  </g>
</svg>
