<svg xmlns="http://www.w3.org/2000/svg" xmlns:xlink="http://www.w3.org/1999/xlink" width="98" height="98" viewBox="0 0 98 98">
  <defs>
    <clipPath id="clip-path">
      <rect id="Rectángulo_456312" data-name="Rectángulo 456312" width="98" height="98" transform="translate(0.059 0.059)" fill="none"/>
    </clipPath>
  </defs>
  <g id="Grupo_1185505" data-name="Grupo 1185505" transform="translate(-307.117 -10093.059)">
    <g id="Grupo_1179968" data-name="Grupo 1179968" transform="translate(307.059 10093)">
      <g id="Grupo_1179959" data-name="Grupo 1179959" clip-path="url(#clip-path)">
        <path id="Trazado_999654" data-name="Trazado 999654" d="M1.5,5.146H81.261A12.087,12.087,0,0,1,93.377,17.2V96.585H13.616A12.087,12.087,0,0,1,1.5,84.527Z" transform="translate(0.014 0.025)" fill="#fff"/>
      </g>
      <g id="Grupo_1179960" data-name="Grupo 1179960">
        <g id="Grupo_1179956" data-name="Grupo 1179956" clip-path="url(#clip-path)">
          <path id="Trazado_999651" data-name="Trazado 999651" d="M92.229,30a5.024,5.024,0,1,1-5.048,5.024A5.037,5.037,0,0,1,92.229,30" transform="translate(0.84 0.145)" fill="#19538d"/>
          <path id="Trazado_999652" data-name="Trazado 999652" d="M63.229,0a5.024,5.024,0,1,1-5.048,5.024A5.037,5.037,0,0,1,63.229,0" transform="translate(0.56 0)" fill="#19538d"/>
          <path id="Trazado_999653" data-name="Trazado 999653" d="M93.377,35.144V96.585H13.616A12.087,12.087,0,0,1,1.5,84.527V5.146H64.459" transform="translate(0.014 0.025)" fill="none" stroke="#19538d" stroke-miterlimit="10" stroke-width="3"/>
        </g>
      </g>
    </g>
    <g id="Grupo_1179969" data-name="Grupo 1179969" transform="translate(322.757 10111.315)">
      <rect id="Rectángulo_456311" data-name="Rectángulo 456311" width="64.131" height="64.594" transform="translate(0.36)" fill="#fff"/>
      <g id="mensaje" transform="translate(0.039 -0.021)">
        <path id="Trazado_1031206" data-name="Trazado 1031206" d="M31.157,2a4.265,4.265,0,0,0-3.619,1.986L12.685,27.3A4.306,4.306,0,0,0,16.3,33.929H46.014A4.306,4.306,0,0,0,49.633,27.3L34.775,3.986A4.265,4.265,0,0,0,31.157,2Zm0,29.8a3.193,3.193,0,1,1,3.193-3.193A3.193,3.193,0,0,1,31.157,31.8Zm4.257-21.286c0,.128-.922,12.771-4.257,12.771S26.9,10.642,26.9,10.514a4.257,4.257,0,1,1,8.514,0Z" transform="translate(0.643 0)" fill="#19538d"/>
        <path id="Trazado_1031207" data-name="Trazado 1031207" d="M28,10.129c0,1.843,1.119,8.538,2.129,10.349,1.01-1.809,2.129-8.506,2.129-10.349a2.129,2.129,0,1,0-4.257,0Z" transform="translate(1.671 0.386)" fill="#19538d"/>
        <circle id="Elipse_13736" data-name="Elipse 13736" cx="1.064" cy="1.064" r="1.064" transform="translate(30.736 27.543)" fill="#19538d"/>
        <path id="Trazado_1031208" data-name="Trazado 1031208" d="M56.279,13H44.133l7.935,12.452a6.436,6.436,0,0,1-5.411,9.9H16.943a6.436,6.436,0,0,1-5.411-9.9L19.467,13H7.321A5.328,5.328,0,0,0,2,18.321v29.8a5.328,5.328,0,0,0,5.321,5.321H22.4a3.177,3.177,0,0,1,2.264.94l6.374,6.182a1.052,1.052,0,0,0,1.5.016l6.4-6.21a3.167,3.167,0,0,1,2.252-.928H56.279A5.328,5.328,0,0,0,61.6,48.121v-29.8A5.328,5.328,0,0,0,56.279,13ZM46.7,50.25H16.9a1.064,1.064,0,0,1,0-2.129H46.7a1.064,1.064,0,0,1,0,2.129ZM15.836,43.864A1.064,1.064,0,0,1,16.9,42.8H27.543a1.064,1.064,0,1,1,0,2.129H16.9A1.064,1.064,0,0,1,15.836,43.864ZM46.7,44.929H31.8a1.064,1.064,0,1,1,0-2.129H46.7a1.064,1.064,0,1,1,0,2.129Zm0-5.321H16.9a1.064,1.064,0,0,1,0-2.129H46.7a1.064,1.064,0,0,1,0,2.129Z" transform="translate(0 0.707)" fill="#19538d"/>
      </g>
    </g>
  </g>
</svg>
