<svg xmlns="http://www.w3.org/2000/svg" width="129" height="127" viewBox="0 0 129 127">
  <g id="Grupo_1185422" data-name="Grupo 1185422" transform="translate(-409 -5171)">
    <rect id="Rectángulo_459087" data-name="Rectángulo 459087" width="129" height="127" transform="translate(409 5171)" fill="#68eae0"/>
    <path id="Trazado_1031863" data-name="Trazado 1031863" d="M19,18h81.211a12.336,12.336,0,0,1,12.336,12.336v81.211H31.336A12.336,12.336,0,0,1,19,99.211Z" transform="translate(407.662 5169.799)" fill="#fff"/>
    <path id="Trazado_1031864" data-name="Trazado 1031864" d="M109.821,42.854a5.14,5.14,0,1,1-5.14,5.14,5.14,5.14,0,0,1,5.14-5.14" transform="translate(410.059 5170.494)" fill="#19538d"/>
    <path id="Trazado_1031865" data-name="Trazado 1031865" d="M80.821,12.854a5.14,5.14,0,1,1-5.14,5.14,5.14,5.14,0,0,1,5.14-5.14" transform="translate(409.248 5169.655)" fill="#19538d"/>
    <path id="Trazado_1031866" data-name="Trazado 1031866" d="M112.547,48.689v62.857H31.336A12.336,12.336,0,0,1,19,99.211V18H83.1" transform="translate(407.662 5169.799)" fill="none" stroke="#19538d" stroke-miterlimit="10" stroke-width="3"/>
    <g id="Grupo_1185415" data-name="Grupo 1185415" transform="translate(27.613 -3228.807)">
      <g id="Grupo_1099776" data-name="Grupo 1099776" transform="translate(412.387 8428.781)">
        <g id="Grupo_1099618" data-name="Grupo 1099618" transform="translate(0 0)">
          <rect id="Rectángulo_401104" data-name="Rectángulo 401104" width="67.943" height="68.761" transform="translate(0)" fill="none"/>
        </g>
        <g id="OUTLINE" transform="translate(-16 -12.661)">
          <path id="Trazado_1030496" data-name="Trazado 1030496" d="M77.457,16H19.235A3.238,3.238,0,0,0,16,19.235V65.6a3.238,3.238,0,0,0,3.235,3.235H40.465l-2.646,9.7H35.408v2.156H61.284V78.535H58.873l-2.646-9.7H77.457A3.238,3.238,0,0,0,80.692,65.6V19.235A3.238,3.238,0,0,0,77.457,16ZM56.638,78.535H40.054l2.646-9.7H53.992ZM78.535,65.6a1.079,1.079,0,0,1-1.078,1.078H19.235A1.079,1.079,0,0,1,18.156,65.6V61.284H78.535ZM37.64,51.085,39.225,49.5,42.47,50.79l3.377-1.4,1.378-3.2h2.243l1.378,3.2,3.377,1.4L57.467,49.5l1.586,1.586L57.762,54.33l1.4,3.377,3.2,1.378v.043H56.9a8.623,8.623,0,0,0-17.112,0H34.329v-.043l3.2-1.378,1.4-3.377Zm17.084,8.043H41.968a6.468,6.468,0,0,1,12.755,0Zm23.812,0H64.519V57.666l-3.7-1.593-.729-1.759,1.492-3.749-3.593-3.592-3.749,1.491-1.759-.729-1.593-3.7H45.805l-1.593,3.7-1.759.729L38.7,46.972l-3.593,3.592L36.6,54.313l-.729,1.759-3.7,1.593v1.462H18.156V19.235a1.079,1.079,0,0,1,1.078-1.078H77.457a1.079,1.079,0,0,1,1.078,1.078Z" fill="#19538d"/>
          <path id="Trazado_1030497" data-name="Trazado 1030497" d="M287.72,59.86a11.86,11.86,0,1,0-11.86,11.86h1.078V60.938H287.72ZM274.782,69.5a9.7,9.7,0,0,1-6.5-15.7l6.5,6.5Zm1.525-10.722-6.5-6.5a9.7,9.7,0,0,1,15.7,6.5Z" transform="translate(-214.576 -27.687)" fill="#19538d"/>
          <path id="Trazado_1030498" data-name="Trazado 1030498" d="M376,170.782h1.213a9.58,9.58,0,0,0,9.569-9.569V160H376Zm2.156-8.626h6.409a7.428,7.428,0,0,1-6.409,6.409Z" transform="translate(-311.481 -124.592)" fill="#19538d"/>
          <path id="Trazado_1030499" data-name="Trazado 1030499" d="M78.642,48H59.235A3.238,3.238,0,0,0,56,51.235V66.329a3.238,3.238,0,0,0,3.235,3.235H78.642a3.238,3.238,0,0,0,3.235-3.235V51.235A3.238,3.238,0,0,0,78.642,48ZM79.72,66.329a1.079,1.079,0,0,1-1.078,1.078H59.235a1.079,1.079,0,0,1-1.078-1.078V54.469H79.72Zm0-14.017H58.156V51.235a1.079,1.079,0,0,1,1.078-1.078H78.642a1.079,1.079,0,0,1,1.078,1.078Z" transform="translate(-34.609 -27.687)" fill="#19538d"/>
          <path id="Trazado_1030500" data-name="Trazado 1030500" d="M56,232H68.938v2.156H56Z" transform="translate(-34.609 -186.889)" fill="#19538d"/>
          <path id="Trazado_1030501" data-name="Trazado 1030501" d="M56,264h9.7v2.156H56Z" transform="translate(-34.609 -214.576)" fill="#19538d"/>
          <path id="Trazado_1030502" data-name="Trazado 1030502" d="M56,296h9.7v2.156H56Z" transform="translate(-34.609 -242.263)" fill="#19538d"/>
          <path id="Trazado_1030503" data-name="Trazado 1030503" d="M376,264h10.782v2.156H376Z" transform="translate(-311.481 -214.576)" fill="#19538d"/>
          <path id="Trazado_1030504" data-name="Trazado 1030504" d="M376,296h10.782v2.156H376Z" transform="translate(-311.481 -242.263)" fill="#19538d"/>
          <path id="Trazado_1030505" data-name="Trazado 1030505" d="M90.209,120.812l-2.472-2.472,2.472-2.472-1.525-1.525-4,4,4,4Z" transform="translate(-59.43 -85.089)" fill="#19538d"/>
          <path id="Trazado_1030506" data-name="Trazado 1030506" d="M0,0H5.806V2.156H0Z" transform="translate(32.235 36.088) rotate(-68.209)" fill="#19538d"/>
          <path id="Trazado_1030507" data-name="Trazado 1030507" d="M179.868,122.337l4-4-4-4-1.525,1.525,2.472,2.472-2.472,2.472Z" transform="translate(-140.463 -85.089)" fill="#19538d"/>
        </g>
      </g>
    </g>
  </g>
</svg>
