<svg xmlns="http://www.w3.org/2000/svg" xmlns:xlink="http://www.w3.org/1999/xlink" width="98" height="98" viewBox="0 0 98 98">
  <defs>
    <clipPath id="clip-path">
      <rect id="Rectángulo_456312" data-name="Rectángulo 456312" width="98" height="98" transform="translate(0.059 0.059)" fill="none"/>
    </clipPath>
  </defs>
  <g id="Grupo_1185504" data-name="Grupo 1185504" transform="translate(-307.117 -10093.059)">
    <g id="Grupo_1179968" data-name="Grupo 1179968" transform="translate(307.059 10093)">
      <g id="Grupo_1179959" data-name="Grupo 1179959" clip-path="url(#clip-path)">
        <path id="Trazado_999654" data-name="Trazado 999654" d="M1.5,5.146H81.261A12.087,12.087,0,0,1,93.377,17.2V96.585H13.616A12.087,12.087,0,0,1,1.5,84.527Z" transform="translate(0.014 0.025)" fill="#fff"/>
      </g>
      <g id="Grupo_1179960" data-name="Grupo 1179960">
        <g id="Grupo_1179956" data-name="Grupo 1179956" clip-path="url(#clip-path)">
          <path id="Trazado_999651" data-name="Trazado 999651" d="M92.229,30a5.024,5.024,0,1,1-5.048,5.024A5.037,5.037,0,0,1,92.229,30" transform="translate(0.84 0.145)" fill="#19538d"/>
          <path id="Trazado_999652" data-name="Trazado 999652" d="M63.229,0a5.024,5.024,0,1,1-5.048,5.024A5.037,5.037,0,0,1,63.229,0" transform="translate(0.56 0)" fill="#19538d"/>
          <path id="Trazado_999653" data-name="Trazado 999653" d="M93.377,35.144V96.585H13.616A12.087,12.087,0,0,1,1.5,84.527V5.146H64.459" transform="translate(0.014 0.025)" fill="none" stroke="#19538d" stroke-miterlimit="10" stroke-width="3"/>
        </g>
      </g>
    </g>
    <g id="Grupo_1179969" data-name="Grupo 1179969" transform="translate(322.757 10111.315)">
      <rect id="Rectángulo_456311" data-name="Rectángulo 456311" width="64.131" height="64.594" fill="#fff"/>
      <g id="error-404" transform="translate(3.06 2.131)">
        <path id="Trazado_1031200" data-name="Trazado 1031200" d="M44.776,26.545l-4.243,6.116h4.243Z" transform="translate(-2.053 -1.191)" fill="#19538d"/>
        <path id="Trazado_1031201" data-name="Trazado 1031201" d="M42.115,54.879a2.742,2.742,0,0,1-2.249-2.7v-2.74a2.735,2.735,0,0,1,2.259-2.7,2.732,2.732,0,0,1,.308-3.5L44.374,41.3a2.753,2.753,0,0,1,1.932-.807,2.689,2.689,0,0,1,1.567.5,2.731,2.731,0,0,1,2.692-2.259h2.749a2.582,2.582,0,0,1,.673.087V16.265H2.5V57.686a2.394,2.394,0,0,0,2.394,2.394H44.133l-1.7-1.711a2.716,2.716,0,0,1-.317-3.489ZM35.722,32.222l7.517-10.766h2.326V32.106h2.278v2.278H45.566v3.134H42.72V34.385h-7ZM23.707,23.4a5.036,5.036,0,0,1,4.374-2.105,5.046,5.046,0,0,1,4.364,2.1,10.32,10.32,0,0,1,1.5,6.075,10.575,10.575,0,0,1-1.5,6.142A5.022,5.022,0,0,1,28.08,37.73a5.043,5.043,0,0,1-4.374-2.115,10.546,10.546,0,0,1-1.5-6.152A10.349,10.349,0,0,1,23.707,23.4Zm-5.22,14.121H15.642V34.385h-7V32.222l7.517-10.766h2.326V32.106h2.278v2.278H18.487ZM37.365,48.681a1.284,1.284,0,0,1-1.29,1.284H20.415a1.285,1.285,0,0,1-1.29-1.284V44.7a1.29,1.29,0,0,1,1.29-1.29h15.66a1.29,1.29,0,0,1,1.29,1.29Z" transform="translate(0 -0.636)" fill="#19538d"/>
        <path id="Trazado_1031202" data-name="Trazado 1031202" d="M29.365,35.864a2.37,2.37,0,0,0,2.268-1.433,10.827,10.827,0,0,0,.711-4.548,10.523,10.523,0,0,0-.711-4.48,2.529,2.529,0,0,0-4.536,0,10.522,10.522,0,0,0-.711,4.48,10.827,10.827,0,0,0,.711,4.548A2.37,2.37,0,0,0,29.365,35.864Z" transform="translate(-1.289 -1.053)" fill="#19538d"/>
        <path id="Trazado_1031203" data-name="Trazado 1031203" d="M16.148,32.661V26.545l-4.243,6.116Z" transform="translate(-0.508 -1.191)" fill="#19538d"/>
        <path id="Trazado_1031204" data-name="Trazado 1031204" d="M53.989,6.879A2.4,2.4,0,0,0,51.6,4.486H4.893A2.393,2.393,0,0,0,2.5,6.879V13.7H53.989ZM25.868,10.448H7.724a1.354,1.354,0,0,1,0-2.707H25.868a1.354,1.354,0,0,1,0,2.707Zm14.879-.393h-.664a.961.961,0,0,1,0-1.923h.664a.961.961,0,0,1,0,1.923Zm4.381,0h-.665a.961.961,0,1,1,0-1.923h.665a.961.961,0,1,1,0,1.923Zm4.381,0h-.665a.961.961,0,1,1,0-1.923h.665a.961.961,0,1,1,0,1.923Z" transform="translate(0 0)" fill="#19538d"/>
        <path id="Trazado_1031205" data-name="Trazado 1031205" d="M63.658,50.022l-2.99-.509,1.759-2.48a.818.818,0,0,0-.1-1.048L60.39,44.043a.816.816,0,0,0-1.048-.087l-2.47,1.75-.509-2.99a.824.824,0,0,0-.807-.673H52.806a.814.814,0,0,0-.8.673l-.509,2.99-2.48-1.75a.817.817,0,0,0-1.048.087l-1.942,1.942a.817.817,0,0,0-.087,1.048l1.75,2.48-2.99.509a.817.817,0,0,0-.673.807v2.74a.817.817,0,0,0,.673.807l2.99.509-1.75,2.47a.816.816,0,0,0,.087,1.048l1.942,1.942a.818.818,0,0,0,1.048.1l2.48-1.759.509,2.99a.814.814,0,0,0,.8.682h2.749a.824.824,0,0,0,.807-.682l.509-2.99,2.47,1.759a.817.817,0,0,0,1.048-.1L62.332,58.4a.817.817,0,0,0,.1-1.048l-1.759-2.47,2.99-.509a.816.816,0,0,0,.683-.807V50.83A.816.816,0,0,0,63.658,50.022ZM54.18,56.357a4.157,4.157,0,1,1,4.162-4.162A4.156,4.156,0,0,1,54.18,56.357Z" transform="translate(-2.242 -2.027)" fill="#19538d"/>
      </g>
    </g>
  </g>
</svg>
