<svg xmlns="http://www.w3.org/2000/svg" xmlns:xlink="http://www.w3.org/1999/xlink" width="98" height="98" viewBox="0 0 98 98">
  <defs>
    <clipPath id="clip-path">
      <rect id="Rectángulo_456312" data-name="Rectángulo 456312" width="98" height="98" transform="translate(0.059 0.059)" fill="none"/>
    </clipPath>
  </defs>
  <g id="Grupo_1185399" data-name="Grupo 1185399" transform="translate(-307.117 -10093.059)">
    <g id="Grupo_1179968" data-name="Grupo 1179968" transform="translate(307.059 10093)">
      <g id="Grupo_1179959" data-name="Grupo 1179959" clip-path="url(#clip-path)">
        <path id="Trazado_999654" data-name="Trazado 999654" d="M1.5,5.146H81.261A12.087,12.087,0,0,1,93.377,17.2V96.585H13.616A12.087,12.087,0,0,1,1.5,84.527Z" transform="translate(0.014 0.025)" fill="#fff"/>
      </g>
      <g id="Grupo_1179960" data-name="Grupo 1179960">
        <g id="Grupo_1179956" data-name="Grupo 1179956" clip-path="url(#clip-path)">
          <path id="Trazado_999651" data-name="Trazado 999651" d="M92.229,30a5.024,5.024,0,1,1-5.048,5.024A5.037,5.037,0,0,1,92.229,30" transform="translate(0.84 0.145)" fill="#19538d"/>
          <path id="Trazado_999652" data-name="Trazado 999652" d="M63.229,0a5.024,5.024,0,1,1-5.048,5.024A5.037,5.037,0,0,1,63.229,0" transform="translate(0.56 0)" fill="#19538d"/>
          <path id="Trazado_999653" data-name="Trazado 999653" d="M93.377,35.144V96.585H13.616A12.087,12.087,0,0,1,1.5,84.527V5.146H64.459" transform="translate(0.014 0.025)" fill="none" stroke="#19538d" stroke-miterlimit="10" stroke-width="3"/>
        </g>
      </g>
    </g>
    <g id="Grupo_1179969" data-name="Grupo 1179969" transform="translate(322.757 10111.315)">
      <rect id="Rectángulo_456311" data-name="Rectángulo 456311" width="64.131" height="64.594" transform="translate(0 -0.257)" fill="#fff"/>
      <g id="Grupo_1185407" data-name="Grupo 1185407" transform="translate(-314.651 -8107.526)">
        <g id="videojuego" transform="translate(315.552 8114.269)">
          <path id="Trazado_1030404" data-name="Trazado 1030404" d="M64.88,36.771l-6.743-10.9A9.014,9.014,0,0,0,50.5,21.6H20.153a9.014,9.014,0,0,0-7.642,4.27L5.994,36.434a11.417,11.417,0,0,0-.225,11.8A11.609,11.609,0,0,0,16,54.077a11.618,11.618,0,0,0,10.226-6.855l.787-1.8L42.517,45.2l1.349,2.809A11.61,11.61,0,0,0,54.2,54.414h.562A11.534,11.534,0,0,0,64.88,48.458a10.971,10.971,0,0,0,0-11.687Zm-11.687.562a2.7,2.7,0,1,1,2.7-2.7A2.735,2.735,0,0,1,53.192,37.333Zm-11.125-2.7a2.7,2.7,0,1,1,2.7,2.7A2.735,2.735,0,0,1,42.067,34.636Zm-18.43,2.135H22.4v1.236a2.254,2.254,0,0,1-2.248,2.248,2.33,2.33,0,0,1-2.248-2.248V36.771H16.67a2.254,2.254,0,0,1-2.248-2.248,2.33,2.33,0,0,1,2.248-2.248h1.236V31.04a2.254,2.254,0,0,1,2.248-2.248A2.33,2.33,0,0,1,22.4,31.04v1.236h1.236a2.254,2.254,0,0,1,2.248,2.248A2.33,2.33,0,0,1,23.637,36.771Zm28.095-7.08a2.7,2.7,0,1,1-2.7-2.7A2.662,2.662,0,0,1,51.732,29.691Zm-2.7,7.3a2.7,2.7,0,1,1-2.7,2.7A2.662,2.662,0,0,1,49.034,37Z" transform="translate(-4.235 -4.294)" fill="#19538d"/>
          <path id="Trazado_1030405" data-name="Trazado 1030405" d="M29.887,17.869a3.661,3.661,0,0,1,3.708-.45,4.223,4.223,0,0,1,2.023,1.686,2.2,2.2,0,0,0,3.034.787,2.229,2.229,0,0,0,.787-3.034,8.488,8.488,0,0,0-7.3-4.158,8.74,8.74,0,0,0-7.3,4.158,2.309,2.309,0,0,0,.787,3.034,2.278,2.278,0,0,0,3.034-.787l1.236-1.236Z" transform="translate(-1.72 -5.395)" fill="#19538d"/>
          <path id="Trazado_1030406" data-name="Trazado 1030406" d="M25.264,14.965a8.6,8.6,0,0,1,7.3-4.27,8.455,8.455,0,0,1,7.3,4.27c1.461,2.472,5.394.225,3.933-2.248A13.268,13.268,0,0,0,32.569,6.2a13.268,13.268,0,0,0-11.238,6.518C19.983,15.19,23.8,17.438,25.264,14.965Z" transform="translate(-2.154 -6.2)" fill="#19538d"/>
        </g>
      </g>
    </g>
  </g>
</svg>
