<svg xmlns="http://www.w3.org/2000/svg" xmlns:xlink="http://www.w3.org/1999/xlink" width="96" height="96" viewBox="0 0 96 96">
  <defs>
    <clipPath id="clip-path">
      <rect id="Rectángulo_456267" data-name="Rectángulo 456267" width="96" height="96" fill="none"/>
    </clipPath>
  </defs>
  <g id="Grupo_1185393" data-name="Grupo 1185393" transform="translate(8082 7293)">
    <g id="Grupo_1185389" data-name="Grupo 1185389" transform="translate(-9275 -11665)">
      <g id="Grupo_1185384" data-name="Grupo 1185384" transform="translate(1672.746 12867) rotate(180)">
        <path id="Trazado_999622" data-name="Trazado 999622" d="M43.07,0A43.07,43.07,0,1,1,0,43.07,43.071,43.071,0,0,1,43.07,0" transform="translate(388.676 8403.93)" fill="#e3fbf9"/>
        <g id="Grupo_1179902" data-name="Grupo 1179902" transform="translate(383.746 8399)">
          <g id="Grupo_1179905" data-name="Grupo 1179905" clip-path="url(#clip-path)">
            <path id="Trazado_999618" data-name="Trazado 999618" d="M48,0A48,48,0,1,1,0,48,48,48,0,0,1,48,0" fill="none"/>
            <path id="Trazado_999619" data-name="Trazado 999619" d="M3.75,59A3.75,3.75,0,1,1,0,62.75,3.75,3.75,0,0,1,3.75,59" transform="translate(0 -14.75)" fill="#0f654d"/>
            <path id="Trazado_999620" data-name="Trazado 999620" d="M19.75,19A3.75,3.75,0,1,1,16,22.75,3.75,3.75,0,0,1,19.75,19" transform="translate(-4 -4.75)" fill="#0f654d"/>
            <path id="Trazado_999621" data-name="Trazado 999621" d="M49,94A45.051,45.051,0,0,1,4,49H6.25A42.75,42.75,0,1,0,17.806,19.768l-1.641-1.539A45,45,0,1,1,49,94" transform="translate(-1 -1)" fill="#0f654d"/>
            <rect id="Rectángulo_456268" data-name="Rectángulo 456268" width="96" height="96" fill="none"/>
            <rect id="Rectángulo_456269" data-name="Rectángulo 456269" width="96" height="96" fill="none"/>
          </g>
        </g>
        <g id="Grupo_1179903" data-name="Grupo 1179903" transform="translate(458.745 8474.508) rotate(180)">
          <g id="Grupo_1099618" data-name="Grupo 1099618" transform="translate(0 0)">
            <rect id="Rectángulo_401104" data-name="Rectángulo 401104" width="54.153" height="54.806" transform="translate(0)" fill="none"/>
          </g>
        </g>
      </g>
    </g>
    <g id="estructura-jerarquica_1_" data-name="estructura-jerarquica (1)" transform="translate(-8058.854 -7272.552)">
      <path id="Trazado_1030370" data-name="Trazado 1030370" d="M151,71.3V81.8l9,4.5V75.8Z" transform="translate(-135.9 -64.17)" fill="#085b55"/>
      <path id="Trazado_1030371" data-name="Trazado 1030371" d="M184,4.52,175,0l-9,4.52,9,4.5Z" transform="translate(-149.4)" fill="#085b55"/>
      <path id="Trazado_1030372" data-name="Trazado 1030372" d="M280,71.3l-9,4.5V86.3l9-4.5Z" transform="translate(-243.9 -64.17)" fill="#085b55"/>
      <path id="Trazado_1030373" data-name="Trazado 1030373" d="M45.2,235.522V226.37H27.1V221.3l-1.5.75-1.5-.75v5.07H6v9.152a7.5,7.5,0,1,0,3,0V229.37H24.1v6.152a7.5,7.5,0,1,0,3,0V229.37H42.2v6.152a7.5,7.5,0,1,0,3,0Z" transform="translate(0 -199.17)" fill="#085b55"/>
    </g>
  </g>
</svg>
