<svg xmlns="http://www.w3.org/2000/svg" xmlns:xlink="http://www.w3.org/1999/xlink" width="128" height="128" viewBox="0 0 128 128">
  <defs>
    <clipPath id="clip-path">
      <rect id="Rectángulo_456267" data-name="Rectángulo 456267" width="128" height="128" fill="none"/>
    </clipPath>
  </defs>
  <g id="Grupo_1185444" data-name="Grupo 1185444" transform="translate(3393 8171.975)">
    <g id="Grupo_1185441" data-name="Grupo 1185441" transform="translate(-2881.254 355.025) rotate(180)">
      <path id="Trazado_999622" data-name="Trazado 999622" d="M59.07,0A59.07,59.07,0,1,1,0,59.07,59.071,59.071,0,0,1,59.07,0" transform="translate(388.676 8403.93)" fill="#fff"/>
      <g id="Grupo_1179902" data-name="Grupo 1179902" transform="translate(383.746 8399)">
        <g id="Grupo_1179905" data-name="Grupo 1179905" clip-path="url(#clip-path)">
          <path id="Trazado_999618" data-name="Trazado 999618" d="M64,0A64,64,0,1,1,0,64,64,64,0,0,1,64,0" fill="none"/>
          <path id="Trazado_999619" data-name="Trazado 999619" d="M5,59a5,5,0,1,1-5,5,5,5,0,0,1,5-5" fill="#19538d"/>
          <path id="Trazado_999620" data-name="Trazado 999620" d="M21,19a5,5,0,1,1-5,5,5,5,0,0,1,5-5" fill="#19538d"/>
          <path id="Trazado_999621" data-name="Trazado 999621" d="M64,124A60.068,60.068,0,0,1,4,64H7A57,57,0,1,0,22.408,25.024L20.22,22.972A60,60,0,1,1,64,124" fill="#19538d"/>
          <rect id="Rectángulo_456268" data-name="Rectángulo 456268" width="128" height="128" fill="none"/>
          <rect id="Rectángulo_456269" data-name="Rectángulo 456269" width="128" height="128" fill="none"/>
        </g>
      </g>
    </g>
    <path id="Trazado_1031885" data-name="Trazado 1031885" d="M149.175,8.87l-7.717,12.8-7.05-.032v-.413L143.3,8.87Zm-7.717,12.512,7.717,12.83H143.3l-8.892-12.385v-.413ZM161.466,8.87l-7.717,12.8-7.05-.032v-.413L155.59,8.87Zm-7.717,12.512,7.717,12.83H155.59L146.7,21.827v-.413ZM176.9,30.529l-.032,6.129a16.034,16.034,0,0,1-1.763,7.114,17.919,17.919,0,0,1-4.462,5.875L165.884,47.2q.794-1.461,1.556-2.922a17.462,17.462,0,0,0,1.27-3.208,14.221,14.221,0,0,0,.508-3.97V30.529Zm6.673,3.684,7.717-12.83,7.082.032v.413l-8.892,12.385Zm0-25.343h5.907l8.892,12.354v.413l-7.082.032Zm12.449,25.343,7.717-12.83,7.082.032v.413l-8.892,12.385Zm0-25.343h5.907l8.892,12.354v.413l-7.082.032Z" transform="translate(-3501.408 -8132.349)" fill="#19538d"/>
  </g>
</svg>
