<svg xmlns="http://www.w3.org/2000/svg" xmlns:xlink="http://www.w3.org/1999/xlink" width="128" height="128" viewBox="0 0 128 128">
  <defs>
    <clipPath id="clip-path">
      <rect id="Rectángulo_456267" data-name="Rectángulo 456267" width="128" height="128" fill="none"/>
    </clipPath>
  </defs>
  <g id="Grupo_1185438" data-name="Grupo 1185438" transform="translate(511.746 8527) rotate(180)">
    <path id="Trazado_999622" data-name="Trazado 999622" d="M59.07,0A59.07,59.07,0,1,1,0,59.07,59.071,59.071,0,0,1,59.07,0" transform="translate(388.676 8403.93)" fill="#fff"/>
    <g id="Grupo_1179902" data-name="Grupo 1179902" transform="translate(383.746 8399)">
      <g id="Grupo_1179905" data-name="Grupo 1179905" clip-path="url(#clip-path)">
        <path id="Trazado_999618" data-name="Trazado 999618" d="M64,0A64,64,0,1,1,0,64,64,64,0,0,1,64,0" fill="none"/>
        <path id="Trazado_999619" data-name="Trazado 999619" d="M5,59a5,5,0,1,1-5,5,5,5,0,0,1,5-5" fill="#19538d"/>
        <path id="Trazado_999620" data-name="Trazado 999620" d="M21,19a5,5,0,1,1-5,5,5,5,0,0,1,5-5" fill="#19538d"/>
        <path id="Trazado_999621" data-name="Trazado 999621" d="M64,124A60.068,60.068,0,0,1,4,64H7A57,57,0,1,0,22.408,25.024L20.22,22.972A60,60,0,1,1,64,124" fill="#19538d"/>
        <rect id="Rectángulo_456268" data-name="Rectángulo 456268" width="128" height="128" fill="none"/>
        <rect id="Rectángulo_456269" data-name="Rectángulo 456269" width="128" height="128" fill="none"/>
      </g>
    </g>
    <g id="Grupo_1179903" data-name="Grupo 1179903" transform="translate(481.67 8497.729) rotate(180)">
      <g id="Grupo_1099618" data-name="Grupo 1099618" transform="translate(0 0)">
        <rect id="Rectángulo_401104" data-name="Rectángulo 401104" width="68.18" height="69.001" transform="translate(0)" fill="none"/>
      </g>
      <path id="Trazado_1031882" data-name="Trazado 1031882" d="M154.35,2.964l1.788,4.98a6.341,6.341,0,0,0-3.958,3.719,16.637,16.637,0,0,0-1.053,6.145V24.32a12.047,12.047,0,0,1-1.421,5.842,10.072,10.072,0,0,1-4.485,4.166,17.814,17.814,0,0,1-8.013,1.548V31.024a5.026,5.026,0,0,0,4.357-1.82,8.127,8.127,0,0,0,1.325-4.884V17.808a18.607,18.607,0,0,1,1.037-6.273,12.317,12.317,0,0,1,3.543-5.14A17.16,17.16,0,0,1,154.35,2.964Zm1.788,57.525L154.35,65.5a17.457,17.457,0,0,1-6.879-3.464,12.317,12.317,0,0,1-3.543-5.14,18.607,18.607,0,0,1-1.037-6.273V44.112a9.655,9.655,0,0,0-.591-3.543,4.761,4.761,0,0,0-1.836-2.314,5.859,5.859,0,0,0-3.256-.814V32.556A17.814,17.814,0,0,1,145.22,34.1a10.072,10.072,0,0,1,4.485,4.166,12.047,12.047,0,0,1,1.421,5.842v6.512a18.914,18.914,0,0,0,.463,4.31,9.124,9.124,0,0,0,1.532,3.416A6.308,6.308,0,0,0,156.138,60.489ZM174.884,7.944l1.788-4.98a17.022,17.022,0,0,1,6.9,3.432,12.377,12.377,0,0,1,3.527,5.14,18.607,18.607,0,0,1,1.037,6.273V24.32a9.9,9.9,0,0,0,.575,3.543,4.73,4.73,0,0,0,1.836,2.33,5.852,5.852,0,0,0,3.272.83v4.725a18.3,18.3,0,0,1-8.013-1.5,9.931,9.931,0,0,1-4.5-4.1,11.849,11.849,0,0,1-1.437-5.826V17.808a20.258,20.258,0,0,0-.431-4.31,8.628,8.628,0,0,0-1.516-3.416A6.407,6.407,0,0,0,174.884,7.944ZM176.672,65.5l-1.788-5.012a6.407,6.407,0,0,0,3.033-2.139,8.628,8.628,0,0,0,1.516-3.416,20.258,20.258,0,0,0,.431-4.31V44.112A11.759,11.759,0,0,1,181.3,38.3a10.048,10.048,0,0,1,4.5-4.1,18.137,18.137,0,0,1,8.013-1.516v4.757a5.033,5.033,0,0,0-4.341,1.82,8,8,0,0,0-1.341,4.852v6.512a18.607,18.607,0,0,1-1.037,6.273,12.377,12.377,0,0,1-3.527,5.14A17.313,17.313,0,0,1,176.672,65.5Z" transform="translate(-131.333 -0.26)" fill="#19538d"/>
    </g>
  </g>
</svg>
