<svg xmlns="http://www.w3.org/2000/svg" xmlns:xlink="http://www.w3.org/1999/xlink" width="96" height="96" viewBox="0 0 96 96">
  <defs>
    <clipPath id="clip-path">
      <rect id="Rectángulo_456267" data-name="Rectángulo 456267" width="96" height="96" fill="none"/>
    </clipPath>
  </defs>
  <g id="Grupo_1185386" data-name="Grupo 1185386" transform="translate(-735 -4372)">
    <g id="Grupo_1185380" data-name="Grupo 1185380" transform="translate(1214.746 12867) rotate(180)">
      <path id="Trazado_999622" data-name="Trazado 999622" d="M43.07,0A43.07,43.07,0,1,1,0,43.07,43.071,43.071,0,0,1,43.07,0" transform="translate(388.676 8403.93)" fill="#e3fbf9"/>
      <g id="Grupo_1179902" data-name="Grupo 1179902" transform="translate(383.746 8399)">
        <g id="Grupo_1179905" data-name="Grupo 1179905" clip-path="url(#clip-path)">
          <path id="Trazado_999618" data-name="Trazado 999618" d="M48,0A48,48,0,1,1,0,48,48,48,0,0,1,48,0" fill="none"/>
          <path id="Trazado_999619" data-name="Trazado 999619" d="M3.75,59A3.75,3.75,0,1,1,0,62.75,3.75,3.75,0,0,1,3.75,59" transform="translate(0 -14.75)" fill="#0f654d"/>
          <path id="Trazado_999620" data-name="Trazado 999620" d="M19.75,19A3.75,3.75,0,1,1,16,22.75,3.75,3.75,0,0,1,19.75,19" transform="translate(-4 -4.75)" fill="#0f654d"/>
          <path id="Trazado_999621" data-name="Trazado 999621" d="M49,94A45.051,45.051,0,0,1,4,49H6.25A42.75,42.75,0,1,0,17.806,19.768l-1.641-1.539A45,45,0,1,1,49,94" transform="translate(-1 -1)" fill="#0f654d"/>
          <rect id="Rectángulo_456268" data-name="Rectángulo 456268" width="96" height="96" fill="none"/>
          <rect id="Rectángulo_456269" data-name="Rectángulo 456269" width="96" height="96" fill="none"/>
        </g>
      </g>
      <g id="Grupo_1179903" data-name="Grupo 1179903" transform="translate(458.745 8474.508) rotate(180)">
        <g id="Grupo_1099618" data-name="Grupo 1099618" transform="translate(0 0)">
          <rect id="Rectángulo_401104" data-name="Rectángulo 401104" width="54.153" height="54.806" transform="translate(0)" fill="none"/>
        </g>
      </g>
    </g>
    <g id="_x30_2" transform="translate(757.162 4394.163)">
      <path id="Trazado_1030347" data-name="Trazado 1030347" d="M20.539,11.341a1.7,1.7,0,0,0-2.044,0l-6.813,5.11a1.7,1.7,0,0,0,0,2.725l6.813,5.11a1.7,1.7,0,0,0,2.044,0l6.813-5.11a1.7,1.7,0,0,0,0-2.725Z" transform="translate(6.33 6.33)" fill="#085b55"/>
      <path id="Trazado_1030348" data-name="Trazado 1030348" d="M26.33,24H12.7A1.7,1.7,0,0,0,11,25.7v6.813a1.7,1.7,0,0,0,1.7,1.7H26.33a1.7,1.7,0,0,0,1.7-1.7V25.7A1.7,1.7,0,0,0,26.33,24Z" transform="translate(6.33 15.474)" fill="#085b55"/>
      <path id="Trazado_1030349" data-name="Trazado 1030349" d="M19.034,10.517V3.7A1.7,1.7,0,0,0,17.33,2H3.7A1.7,1.7,0,0,0,2,3.7v6.813a1.7,1.7,0,0,0,1.7,1.7H17.33A1.7,1.7,0,0,0,19.034,10.517Z" transform="translate(0 0)" fill="#085b55"/>
      <path id="Trazado_1030350" data-name="Trazado 1030350" d="M35.33,2H21.7A1.7,1.7,0,0,0,20,3.7v6.813a1.7,1.7,0,0,0,1.7,1.7H35.33a1.7,1.7,0,0,0,1.7-1.7V3.7A1.7,1.7,0,0,0,35.33,2Z" transform="translate(12.661 0)" fill="#085b55"/>
      <path id="Trazado_1030351" data-name="Trazado 1030351" d="M13,4H23.22V7.407H13Z" transform="translate(7.737 1.407)" fill="#085b55"/>
      <path id="Trazado_1030352" data-name="Trazado 1030352" d="M25.407,17.517H22v3.407h5.11a1.7,1.7,0,0,0,1.7-1.7V9H25.407Z" transform="translate(14.067 4.924)" fill="#085b55"/>
      <path id="Trazado_1030353" data-name="Trazado 1030353" d="M9.407,9H6V19.22a1.7,1.7,0,0,0,1.7,1.7h5.11V17.517H9.407Z" transform="translate(2.813 4.924)" fill="#085b55"/>
      <path id="Trazado_1030354" data-name="Trazado 1030354" d="M15,20h3.407v5.11H15Z" transform="translate(9.144 12.661)" fill="#085b55"/>
    </g>
  </g>
</svg>
