<svg xmlns="http://www.w3.org/2000/svg" xmlns:xlink="http://www.w3.org/1999/xlink" width="98" height="98" viewBox="0 0 98 98">
  <defs>
    <clipPath id="clip-path">
      <rect id="Rectángulo_456312" data-name="Rectángulo 456312" width="98" height="98" transform="translate(0.059 0.059)" fill="none"/>
    </clipPath>
  </defs>
  <g id="Grupo_1185401" data-name="Grupo 1185401" transform="translate(-307.117 -10093.059)">
    <g id="Grupo_1179968" data-name="Grupo 1179968" transform="translate(307.059 10093)">
      <g id="Grupo_1179959" data-name="Grupo 1179959" clip-path="url(#clip-path)">
        <path id="Trazado_999654" data-name="Trazado 999654" d="M1.5,5.146H81.261A12.087,12.087,0,0,1,93.377,17.2V96.585H13.616A12.087,12.087,0,0,1,1.5,84.527Z" transform="translate(0.014 0.025)" fill="#fff"/>
      </g>
      <g id="Grupo_1179960" data-name="Grupo 1179960">
        <g id="Grupo_1179956" data-name="Grupo 1179956" clip-path="url(#clip-path)">
          <path id="Trazado_999651" data-name="Trazado 999651" d="M92.229,30a5.024,5.024,0,1,1-5.048,5.024A5.037,5.037,0,0,1,92.229,30" transform="translate(0.84 0.145)" fill="#19538d"/>
          <path id="Trazado_999652" data-name="Trazado 999652" d="M63.229,0a5.024,5.024,0,1,1-5.048,5.024A5.037,5.037,0,0,1,63.229,0" transform="translate(0.56 0)" fill="#19538d"/>
          <path id="Trazado_999653" data-name="Trazado 999653" d="M93.377,35.144V96.585H13.616A12.087,12.087,0,0,1,1.5,84.527V5.146H64.459" transform="translate(0.014 0.025)" fill="none" stroke="#19538d" stroke-miterlimit="10" stroke-width="3"/>
        </g>
      </g>
    </g>
    <g id="Grupo_1179969" data-name="Grupo 1179969" transform="translate(322.757 10111.315)">
      <rect id="Rectángulo_456311" data-name="Rectángulo 456311" width="64.131" height="64.594" transform="translate(0.359 -0.257)" fill="#fff"/>
      <g id="robot" transform="translate(1.359 1.744)">
        <path id="Trazado_1030407" data-name="Trazado 1030407" d="M102.916,404.61H69.323a6.457,6.457,0,0,0,0,12.914h33.593a6.457,6.457,0,1,0,0-12.914ZM71.4,412.87H67.794v-3.608H71.4Zm8.26,0H76.054v-3.608h3.608Zm8.261,0H84.315v-3.608h3.608Zm8.261,0H92.577v-3.608h3.608Zm8.26,0h-3.608v-3.608h3.608Z" transform="translate(-55.335 -355.955)" fill="#19538d"/>
        <path id="Trazado_1030408" data-name="Trazado 1030408" d="M142.668,27.458a3.275,3.275,0,0,0,1.132.2h21.142a3.275,3.275,0,0,0,1.132-.2,3.328,3.328,0,0,0,2.189-3.121V9.8a3.324,3.324,0,0,0-3.32-3.32h-8.768V0h-3.607V6.483H143.8a3.324,3.324,0,0,0-3.32,3.32V24.338a3.328,3.328,0,0,0,2.189,3.121Zm16.62-16.322H162.9v3.608h-3.607Zm-9.6,8.26h9.363V23H149.69Zm-3.843-8.26h3.607v3.608h-3.607Z" transform="translate(-123.587 0)" fill="#19538d"/>
        <path id="Trazado_1030409" data-name="Trazado 1030409" d="M57.961,168v3.608a1.8,1.8,0,0,1-3.608,0V168H50.746v3.608a5.42,5.42,0,0,0,3.608,5.1v2.255a5.156,5.156,0,0,1-5.15,5.15c-2.25,0-6.311,0-8.52,0v-5.051h-19.8v5.051h-8.52a5.156,5.156,0,0,1-5.15-5.15v-2.255a5.42,5.42,0,0,0,3.608-5.1V168H7.215v3.608a1.8,1.8,0,0,1-3.608,0V168H0v3.608a5.42,5.42,0,0,0,3.608,5.1v2.255a8.768,8.768,0,0,0,8.758,8.758c2.247-.006,6.313,0,8.52,0v5.124h19.8v-5.124H49.2a8.768,8.768,0,0,0,8.758-8.758v-2.255a5.42,5.42,0,0,0,3.608-5.1V168Z" transform="translate(0 -147.798)" fill="#19538d"/>
      </g>
    </g>
  </g>
</svg>
