<svg xmlns="http://www.w3.org/2000/svg" xmlns:xlink="http://www.w3.org/1999/xlink" width="150" height="150" viewBox="0 0 150 150">
  <defs>
    <clipPath id="clip-path">
      <rect id="Rectángulo_456312" data-name="Rectángulo 456312" width="150" height="150" fill="none"/>
    </clipPath>
    <clipPath id="clip-path-3">
      <path id="path3234" d="M0-682.665H91v91H0Z" transform="translate(0 682.665)" fill="#19538d"/>
    </clipPath>
  </defs>
  <g id="Grupo_1185372" data-name="Grupo 1185372" transform="translate(-307.059 -10093)">
    <g id="Grupo_1179968" data-name="Grupo 1179968" transform="translate(-115 658)">
      <g id="Grupo_1179959" data-name="Grupo 1179959" transform="translate(422.059 9435)" clip-path="url(#clip-path)">
        <path id="Trazado_999654" data-name="Trazado 999654" d="M1.5,5.146H123.437A18.479,18.479,0,0,1,141.96,23.58V144.937H20.022A18.479,18.479,0,0,1,1.5,126.5Z" transform="translate(0.815 2.76)" fill="#fff"/>
      </g>
      <g id="Grupo_1179960" data-name="Grupo 1179960" transform="translate(422.059 9435)">
        <g id="Grupo_1179956" data-name="Grupo 1179956" clip-path="url(#clip-path)">
          <path id="Trazado_999651" data-name="Trazado 999651" d="M94.9,30a7.681,7.681,0,1,1-7.718,7.681A7.7,7.7,0,0,1,94.9,30" transform="translate(47.384 16.085)" fill="#19538d"/>
          <path id="Trazado_999652" data-name="Trazado 999652" d="M65.9,0a7.681,7.681,0,1,1-7.718,7.681A7.7,7.7,0,0,1,65.9,0" transform="translate(31.622 0)" fill="#19538d"/>
          <path id="Trazado_999653" data-name="Trazado 999653" d="M141.96,51.007v93.93H20.022A18.479,18.479,0,0,1,1.5,126.5V5.146H97.75" transform="translate(0.815 2.76)" fill="none" stroke="#19538d" stroke-miterlimit="10" stroke-width="4"/>
        </g>
      </g>
    </g>
    <g id="Grupo_1179969" data-name="Grupo 1179969" transform="translate(331.059 10121)">
      <rect id="Rectángulo_456311" data-name="Rectángulo 456311" width="98.042" height="98.75" transform="translate(0 0.217)" fill="#fff"/>
      <g id="g3228" transform="translate(4 686.882)">
        <g id="g3230" transform="translate(0 -682.665)">
          <g id="g3232" clip-path="url(#clip-path-3)">
            <g id="g3238" transform="translate(21.098 5.197)">
              <path id="path3240" d="M-277.716-137.252h-36.623a6.1,6.1,0,0,1-6.089-6.089v-10.981a6.1,6.1,0,0,1,6.089-6.089h36.623a6.1,6.1,0,0,1,6.089,6.089v10.981A6.1,6.1,0,0,1-277.716-137.252Zm-36.623-19.605a2.537,2.537,0,0,0-2.535,2.535v10.981a2.538,2.538,0,0,0,2.535,2.535h36.623a2.538,2.538,0,0,0,2.535-2.535v-10.981a2.538,2.538,0,0,0-2.535-2.535Z" transform="translate(320.429 160.412)" fill="#19538d"/>
            </g>
            <g id="g3242" transform="translate(21.098 33.919)">
              <path id="path3244" d="M-277.716-137.252h-36.623a6.1,6.1,0,0,1-6.089-6.089v-10.981a6.1,6.1,0,0,1,6.089-6.089h36.623a6.1,6.1,0,0,1,6.089,6.089v10.981A6.1,6.1,0,0,1-277.716-137.252Zm-36.623-19.605a2.538,2.538,0,0,0-2.535,2.535v10.981a2.537,2.537,0,0,0,2.535,2.535h36.623a2.538,2.538,0,0,0,2.535-2.535v-10.981a2.538,2.538,0,0,0-2.535-2.535Z" transform="translate(320.429 160.412)" fill="#19538d"/>
            </g>
            <g id="g3246" transform="translate(21.098 62.641)">
              <path id="path3248" d="M-196.835-137.252h-10.781a1.777,1.777,0,0,1-1.777-1.777,1.777,1.777,0,0,1,1.777-1.777h10.781a2.537,2.537,0,0,0,2.535-2.535v-10.981a2.538,2.538,0,0,0-2.535-2.535h-36.623a2.538,2.538,0,0,0-2.535,2.535v10.981a2.537,2.537,0,0,0,2.535,2.535h10.2a1.777,1.777,0,0,1,1.777,1.777,1.777,1.777,0,0,1-1.777,1.777h-10.2a6.1,6.1,0,0,1-6.089-6.089v-10.981a6.1,6.1,0,0,1,6.089-6.089h36.623a6.1,6.1,0,0,1,6.089,6.089v10.981A6.1,6.1,0,0,1-196.835-137.252Z" transform="translate(239.547 160.412)" fill="#19538d"/>
            </g>
            <g id="g3250" transform="translate(66.345 15.197)">
              <path id="path3252" d="M4.427,18.746H-4.3a1.777,1.777,0,0,1-1.777-1.777A1.777,1.777,0,0,1-4.3,15.191H4.427a3.342,3.342,0,0,0,3.338-3.338V-6.441A3.342,3.342,0,0,0,4.427-9.779H-11.556a1.777,1.777,0,0,1-1.777-1.777,1.777,1.777,0,0,1,1.777-1.777H4.427a6.9,6.9,0,0,1,6.893,6.893V11.853A6.9,6.9,0,0,1,4.427,18.746Z" transform="translate(13.333 13.333)" fill="#19538d"/>
            </g>
            <g id="g3254" transform="translate(73.394 38.706)">
              <path id="path3256" d="M-44.169-75a1.772,1.772,0,0,1-1.257-.521l-5.016-5.016a1.777,1.777,0,0,1-.521-1.257,1.777,1.777,0,0,1,.521-1.257l5.016-5.016a1.777,1.777,0,0,1,2.513,0,1.777,1.777,0,0,1,0,2.513l-3.759,3.759,3.759,3.759a1.777,1.777,0,0,1,0,2.513A1.772,1.772,0,0,1-44.169-75Z" transform="translate(50.963 88.588)" fill="#19538d"/>
            </g>
            <g id="g3258" transform="translate(0 43.878)">
              <path id="path3260" d="M-155.991,18.746h-8.726a6.9,6.9,0,0,1-6.893-6.892V-6.441a6.9,6.9,0,0,1,6.893-6.893h15.983a1.777,1.777,0,0,1,1.777,1.777,1.777,1.777,0,0,1-1.777,1.777h-15.983a3.342,3.342,0,0,0-3.338,3.338V11.853a3.342,3.342,0,0,0,3.338,3.338h8.726a1.777,1.777,0,0,1,1.777,1.777A1.777,1.777,0,0,1-155.991,18.746Z" transform="translate(171.61 13.333)" fill="#19538d"/>
            </g>
            <g id="g3262" transform="translate(9.034 67.386)">
              <path id="path3264" d="M-11.556-75a1.772,1.772,0,0,1-1.257-.521,1.777,1.777,0,0,1,0-2.513L-9.054-81.8l-3.759-3.759a1.777,1.777,0,0,1,0-2.513,1.777,1.777,0,0,1,2.513,0l5.016,5.016A1.777,1.777,0,0,1-4.763-81.8a1.777,1.777,0,0,1-.521,1.257L-10.3-75.524A1.772,1.772,0,0,1-11.556-75Z" transform="translate(13.333 88.589)" fill="#19538d"/>
            </g>
            <g id="g3266" transform="translate(45.321 84.023)">
              <path id="path3268" fill="#19538d"/>
            </g>
            <g id="g3270" transform="translate(30.845 15)">
              <path id="path3272" d="M14.583-9.779H-11.556a1.777,1.777,0,0,1-1.777-1.777,1.777,1.777,0,0,1,1.777-1.777H14.583a1.777,1.777,0,0,1,1.777,1.777A1.777,1.777,0,0,1,14.583-9.779Z" transform="translate(13.333 13.333)" fill="#19538d"/>
            </g>
            <g id="g3274" transform="translate(30.845 43.878)">
              <path id="path3276" d="M14.583-9.779H-11.556a1.777,1.777,0,0,1-1.777-1.777,1.777,1.777,0,0,1,1.777-1.777H14.583a1.777,1.777,0,0,1,1.777,1.777A1.777,1.777,0,0,1,14.583-9.779Z" transform="translate(13.333 13.333)" fill="#19538d"/>
            </g>
            <g id="g3278" transform="translate(30.845 72.755)">
              <path id="path3280" d="M14.583-9.779H-11.556a1.777,1.777,0,0,1-1.777-1.777,1.777,1.777,0,0,1,1.777-1.777H14.583a1.777,1.777,0,0,1,1.777,1.777A1.777,1.777,0,0,1,14.583-9.779Z" transform="translate(13.333 13.333)" fill="#19538d"/>
            </g>
            <g id="g3282" transform="translate(0 5.197)">
              <path id="path3284" d="M-141.382-74.8h-15.435a6.316,6.316,0,0,1-6.309-6.309v-5.468a1.777,1.777,0,0,1,1.777-1.777,1.777,1.777,0,0,1,1.777,1.777v5.468a2.758,2.758,0,0,0,2.755,2.755h15.435a1.777,1.777,0,0,1,1.777,1.777A1.777,1.777,0,0,1-141.382-74.8Z" transform="translate(163.126 88.352)" fill="#19538d"/>
            </g>
          </g>
        </g>
      </g>
    </g>
  </g>
</svg>
