<svg xmlns="http://www.w3.org/2000/svg" xmlns:xlink="http://www.w3.org/1999/xlink" width="98" height="98" viewBox="0 0 98 98">
  <defs>
    <clipPath id="clip-path">
      <rect id="Rectángulo_456312" data-name="Rectángulo 456312" width="98" height="98" transform="translate(0.059 0.059)" fill="none"/>
    </clipPath>
  </defs>
  <g id="Grupo_1185402" data-name="Grupo 1185402" transform="translate(-307.117 -10093.059)">
    <g id="Grupo_1179968" data-name="Grupo 1179968" transform="translate(307.059 10093)">
      <g id="Grupo_1179959" data-name="Grupo 1179959" clip-path="url(#clip-path)">
        <path id="Trazado_999654" data-name="Trazado 999654" d="M1.5,5.146H81.261A12.087,12.087,0,0,1,93.377,17.2V96.585H13.616A12.087,12.087,0,0,1,1.5,84.527Z" transform="translate(0.014 0.025)" fill="#fff"/>
      </g>
      <g id="Grupo_1179960" data-name="Grupo 1179960">
        <g id="Grupo_1179956" data-name="Grupo 1179956" clip-path="url(#clip-path)">
          <path id="Trazado_999651" data-name="Trazado 999651" d="M92.229,30a5.024,5.024,0,1,1-5.048,5.024A5.037,5.037,0,0,1,92.229,30" transform="translate(0.84 0.145)" fill="#19538d"/>
          <path id="Trazado_999652" data-name="Trazado 999652" d="M63.229,0a5.024,5.024,0,1,1-5.048,5.024A5.037,5.037,0,0,1,63.229,0" transform="translate(0.56 0)" fill="#19538d"/>
          <path id="Trazado_999653" data-name="Trazado 999653" d="M93.377,35.144V96.585H13.616A12.087,12.087,0,0,1,1.5,84.527V5.146H64.459" transform="translate(0.014 0.025)" fill="none" stroke="#19538d" stroke-miterlimit="10" stroke-width="3"/>
        </g>
      </g>
    </g>
    <g id="Grupo_1179969" data-name="Grupo 1179969" transform="translate(322.757 10111.315)">
      <rect id="Rectángulo_456311" data-name="Rectángulo 456311" width="64.131" height="64.594" fill="#fff"/>
      <g id="productivity" transform="translate(1.34 1.567)">
        <path id="Trazado_1030410" data-name="Trazado 1030410" d="M53.272,36.07V31.591a.957.957,0,0,0-.789-.942L49.377,30.1a15.058,15.058,0,0,0-1.943-4.628l1.82-2.6a.957.957,0,0,0-.108-1.225L46.009,18.5a.957.957,0,0,0-1.225-.108L42.191,20.2a15.707,15.707,0,0,0-4.619-1.923l-.562-3.116a.957.957,0,0,0-.943-.787l-4.486.007a.957.957,0,0,0-.94.787l-.561,3.1a16.025,16.025,0,0,0-4.589,1.943l-2.623-1.839a.957.957,0,0,0-1.225.106L18.5,21.615a.957.957,0,0,0-.114,1.218L20.208,25.5a16.064,16.064,0,0,0-1.923,4.569l-3.112.57a.957.957,0,0,0-.785.94l-.007,4.483a.957.957,0,0,0,.793.944l3.131.545a16.4,16.4,0,0,0,1.913,4.629L18.407,44.77A.957.957,0,0,0,18.515,46l3.137,3.137a.957.957,0,0,0,1.226.107l2.613-1.829a15.553,15.553,0,0,0,4.629,1.943l.537,3.12a.957.957,0,0,0,.943.795h4.476a.957.957,0,0,0,.942-.791l.554-3.134a16.3,16.3,0,0,0,4.579-1.9l2.635,1.8A.957.957,0,0,0,46,49.128l3.143-3.143a.957.957,0,0,0,.108-1.225l-1.82-2.6a16.027,16.027,0,0,0,1.923-4.6l3.122-.545a.957.957,0,0,0,.792-.943ZM40.526,40.5a9.468,9.468,0,1,1-.01-13.37,9.449,9.449,0,0,1,.01,13.37Z" transform="translate(-3.101 -3.095)" fill="#19538d"/>
        <path id="Trazado_1030411" data-name="Trazado 1030411" d="M55.629,54.38l-2.717,7.6a.593.593,0,0,1-1.05.13l-1.556-2.323c-.119.079-.248.159-.367.228-.1.069-.208.129-.317.2A30.8,30.8,0,0,1,7.483,17.744a.6.6,0,0,1,.835-.188l4.1,2.626c-.178.278-.347.555-.515.833A25.325,25.325,0,0,0,47.244,55.238l-.784-1.165a.593.593,0,0,1,.523-.923l5.3.283,2.825.155a.593.593,0,0,1,.526.791Z" transform="translate(-3 -3.123)" fill="#19538d"/>
        <path id="Trazado_1030412" data-name="Trazado 1030412" d="M59.24,50.008l-3.655-2.335a.562.562,0,0,1-.173-.77A25.322,25.322,0,0,0,20.174,12.4l1.028,1.61a.593.593,0,0,1-.543.91l-8.054-.6a.593.593,0,0,1-.51-.8l2.86-7.542a.593.593,0,0,1,1.054-.108l1.217,1.916A30.793,30.793,0,0,1,60.042,49.826a.579.579,0,0,1-.8.181Z" transform="translate(-3.08 -2.994)" fill="#19538d"/>
        <path id="Trazado_1030413" data-name="Trazado 1030413" d="M53.272,36.07V31.591a.957.957,0,0,0-.789-.942L49.377,30.1a15.058,15.058,0,0,0-1.943-4.628l1.82-2.6a.957.957,0,0,0-.108-1.225L46.009,18.5a.957.957,0,0,0-1.225-.108L42.191,20.2a15.707,15.707,0,0,0-4.619-1.923l-.562-3.116a.957.957,0,0,0-.943-.787l-4.486.007a.957.957,0,0,0-.94.787l-.561,3.1a16.025,16.025,0,0,0-4.589,1.943l-2.623-1.839a.957.957,0,0,0-1.225.106L18.5,21.615a.957.957,0,0,0-.114,1.218L20.208,25.5a16.064,16.064,0,0,0-1.923,4.569l-3.112.57a.957.957,0,0,0-.785.94l-.007,4.483a.957.957,0,0,0,.793.944l3.131.545a16.4,16.4,0,0,0,1.913,4.629L18.407,44.77A.957.957,0,0,0,18.515,46l3.137,3.137a.957.957,0,0,0,1.226.107l2.613-1.829a15.553,15.553,0,0,0,4.629,1.943l.537,3.12a.957.957,0,0,0,.943.795h4.476a.957.957,0,0,0,.942-.791l.554-3.134a16.3,16.3,0,0,0,4.579-1.9l2.635,1.8A.957.957,0,0,0,46,49.128l3.143-3.143a.957.957,0,0,0,.108-1.225l-1.82-2.6a16.027,16.027,0,0,0,1.923-4.6l3.122-.545a.957.957,0,0,0,.792-.943ZM40.526,40.5a9.468,9.468,0,1,1-.01-13.37,9.449,9.449,0,0,1,.01,13.37Z" transform="translate(-3.101 -3.095)" fill="#19538d"/>
        <path id="Trazado_1030414" data-name="Trazado 1030414" d="M55.625,54.376l-2.713,7.6a.593.593,0,0,1-1.05.131L50.3,59.786A30.795,30.795,0,0,1,7.486,17.742a.6.6,0,0,1,.836-.187l3.139,2.018a1.168,1.168,0,0,1,.362,1.578A25.325,25.325,0,0,0,47.247,55.238l-.782-1.162a.593.593,0,0,1,.523-.923l8.111.432a.593.593,0,0,1,.527.791Z" transform="translate(-3 -3.123)" fill="#19538d"/>
        <path id="Trazado_1030415" data-name="Trazado 1030415" d="M59.24,50.008l-3.655-2.335a.562.562,0,0,1-.173-.77A25.322,25.322,0,0,0,20.174,12.4l1.028,1.61a.593.593,0,0,1-.543.91l-8.054-.6a.593.593,0,0,1-.51-.8l2.86-7.542a.593.593,0,0,1,1.054-.108l1.217,1.916A30.793,30.793,0,0,1,60.042,49.826a.579.579,0,0,1-.8.181Z" transform="translate(-3.08 -2.994)" fill="#19538d"/>
      </g>
    </g>
  </g>
</svg>
