<svg xmlns="http://www.w3.org/2000/svg" xmlns:xlink="http://www.w3.org/1999/xlink" width="160" height="160" viewBox="0 0 160 160">
  <defs>
    <clipPath id="clip-path">
      <rect id="Rectángulo_456312" data-name="Rectángulo 456312" width="160" height="160" fill="none"/>
    </clipPath>
  </defs>
  <g id="Grupo_1185486" data-name="Grupo 1185486" transform="translate(-422.059 -9435)">
    <g id="Grupo_1179959" data-name="Grupo 1179959" transform="translate(422.059 9435)" clip-path="url(#clip-path)">
      <path id="Trazado_999654" data-name="Trazado 999654" d="M1.5,5.146H131.567a19.711,19.711,0,0,1,19.757,19.663V154.256H21.257A19.711,19.711,0,0,1,1.5,134.593Z" transform="translate(0.97 3.287)" fill="#fff"/>
    </g>
    <g id="Grupo_1179960" data-name="Grupo 1179960" transform="translate(422.059 9435)">
      <g id="Grupo_1179956" data-name="Grupo 1179956" clip-path="url(#clip-path)">
        <path id="Trazado_999651" data-name="Trazado 999651" d="M95.413,30a8.193,8.193,0,1,1-8.232,8.193A8.213,8.213,0,0,1,95.413,30" transform="translate(56.355 19.158)" fill="#19538d"/>
        <path id="Trazado_999652" data-name="Trazado 999652" d="M66.413,0a8.193,8.193,0,1,1-8.232,8.193A8.213,8.213,0,0,1,66.413,0" transform="translate(37.609 0)" fill="#19538d"/>
        <path id="Trazado_999653" data-name="Trazado 999653" d="M151.324,54.064V154.256H21.257A19.711,19.711,0,0,1,1.5,134.593V5.146H104.167" transform="translate(0.97 3.287)" fill="none" stroke="#19538d" stroke-miterlimit="10" stroke-width="4"/>
      </g>
    </g>
    <g id="Grupo_1179961" data-name="Grupo 1179961" transform="translate(-608)">
      <rect id="Rectángulo_456311" data-name="Rectángulo 456311" width="109.239" height="110.028" transform="translate(1050.059 9463)" fill="#fff"/>
      <g id="User_Experience" data-name="User Experience" transform="translate(1053.474 9463.704)">
        <path id="Trazado_1030754" data-name="Trazado 1030754" d="M30.359,4.68a1.68,1.68,0,1,0-1.68,1.68A1.68,1.68,0,0,0,30.359,4.68Z" transform="translate(18.35 2.039)" fill="#19538d"/>
        <path id="Trazado_1030755" data-name="Trazado 1030755" d="M38.359,4.68a1.68,1.68,0,1,0-1.68,1.68A1.68,1.68,0,0,0,38.359,4.68Z" transform="translate(23.787 2.039)" fill="#19538d"/>
        <path id="Trazado_1030756" data-name="Trazado 1030756" d="M105.817,20.156H87.341V8.4a8.4,8.4,0,0,0-8.4-8.4H28.554a8.4,8.4,0,0,0-8.4,8.4V20.156H6.719a1.68,1.68,0,0,0-1.68,1.68V52.069a1.68,1.68,0,0,0,1.68,1.68H20.156V67.185H1.68A1.68,1.68,0,0,0,0,68.865V89.021A1.68,1.68,0,0,0,1.68,90.7H20.156v8.4a8.4,8.4,0,0,0,8.4,8.4H78.943a8.4,8.4,0,0,0,8.4-8.4V91.691c17.922-5.123,17.771-30.5,0-35.541V47.03h18.476a1.68,1.68,0,0,0,1.68-1.68V21.835A1.68,1.68,0,0,0,105.817,20.156ZM23.515,8.4a5.039,5.039,0,0,1,5.039-5.039H78.943A5.039,5.039,0,0,1,83.982,8.4V20.156H80.622V8.4a1.68,1.68,0,0,0-1.68-1.68H67.185a1.68,1.68,0,0,0-1.68,1.68,1.68,1.68,0,0,1-1.68,1.68H43.67a1.68,1.68,0,0,1-1.68-1.68,1.68,1.68,0,0,0-1.68-1.68H28.554a1.68,1.68,0,0,0-1.68,1.68V20.156H23.515ZM58.787,20.156a1.68,1.68,0,0,0-1.68,1.68V45.35a1.68,1.68,0,0,0,1.68,1.68H77.263v9.12c-17.7,5.039-17.888,30.049-.37,35.423.521.151.37-.621.37,5.845H30.233V90.7H52.069a1.68,1.68,0,0,0,1.68-1.68V68.865a1.68,1.68,0,0,0-1.68-1.68H30.233V53.748H43.67a1.68,1.68,0,0,0,1.68-1.68V21.835a1.68,1.68,0,0,0-1.68-1.68H30.233V10.078h8.684a5.039,5.039,0,0,0,4.753,3.359H63.826a5.039,5.039,0,0,0,4.753-3.359h8.684V20.156ZM86.736,70.847a4.434,4.434,0,1,1-8.868,0V69.318a4.434,4.434,0,0,1,8.868,0ZM90.7,84.738l.453,1.344a15,15,0,0,1-17.821,0l.47-1.361a8.919,8.919,0,0,1,16.9.017ZM8.4,23.515H41.991V50.389H8.4ZM23.515,53.748h3.359V67.185H23.515ZM3.359,70.545h47.03v16.8H3.359Zm75.584,33.593H28.554A5.039,5.039,0,0,1,23.515,99.1V90.7h3.359v8.4a1.68,1.68,0,0,0,1.68,1.68H78.943a1.68,1.68,0,0,0,1.68-1.68V92.38a16.04,16.04,0,0,0,3.359,0V99.1a5.039,5.039,0,0,1-5.039,5.039ZM93.908,83.579a12.144,12.144,0,0,0-6.265-7.088A8.549,8.549,0,0,0,90.1,69.318a7.793,7.793,0,0,0-15.587,0c0,2.452,0,4.8,2.452,7.172A12.093,12.093,0,0,0,70.7,83.579a15.117,15.117,0,1,1,23.213,0ZM83.982,55.512a16.04,16.04,0,0,0-3.359,0V47.03h3.359Zm20.156-11.757H60.467V23.515h43.67Z" fill="#19538d"/>
        <path id="Trazado_1030757" data-name="Trazado 1030757" d="M33.554,48H6.68a1.68,1.68,0,0,0,0,3.359H33.554a1.68,1.68,0,0,0,0-3.359Z" transform="translate(3.398 32.622)" fill="#19538d"/>
        <path id="Trazado_1030758" data-name="Trazado 1030758" d="M6.68,47.359H40.272a1.68,1.68,0,0,0,0-3.359H6.68a1.68,1.68,0,0,0,0,3.359Z" transform="translate(3.398 29.904)" fill="#19538d"/>
        <path id="Trazado_1030759" data-name="Trazado 1030759" d="M15.359,31.757V21.68a1.68,1.68,0,1,0-3.359,0V31.757a1.68,1.68,0,0,0,3.359,0Z" transform="translate(8.156 13.593)" fill="#19538d"/>
        <path id="Trazado_1030760" data-name="Trazado 1030760" d="M8,25.68v3.359a1.68,1.68,0,0,0,3.359,0V25.68A1.68,1.68,0,0,0,8,25.68Z" transform="translate(5.437 16.311)" fill="#19538d"/>
        <path id="Trazado_1030761" data-name="Trazado 1030761" d="M19.359,31.078v-8.4a1.68,1.68,0,1,0-3.359,0v8.4a1.68,1.68,0,1,0,3.359,0Z" transform="translate(10.874 14.272)" fill="#19538d"/>
        <path id="Trazado_1030762" data-name="Trazado 1030762" d="M23.359,34.476V17.68a1.68,1.68,0,1,0-3.359,0v16.8a1.68,1.68,0,0,0,3.359,0Z" transform="translate(13.593 10.874)" fill="#19538d"/>
        <path id="Trazado_1030763" data-name="Trazado 1030763" d="M44.53,16.49l-5.039,5.039a1.68,1.68,0,0,0,0,2.385l5.039,5.039a1.687,1.687,0,0,0,2.385-2.385l-3.863-3.846,3.863-3.846A1.687,1.687,0,1,0,44.53,16.49Z" transform="translate(26.502 10.871)" fill="#19538d"/>
        <path id="Trazado_1030764" data-name="Trazado 1030764" d="M56.875,28.953l5.039-5.039a1.68,1.68,0,0,0,0-2.385L56.875,16.49a1.687,1.687,0,1,0-2.385,2.385l3.863,3.846L54.49,26.568a1.687,1.687,0,0,0,2.385,2.385Z" transform="translate(36.697 10.871)" fill="#19538d"/>
        <path id="Trazado_1030765" data-name="Trazado 1030765" d="M46.282,26.781a1.68,1.68,0,0,0,1.394,2.6c1.226,0,.773.2,8.113-10.834A1.68,1.68,0,0,0,53,16.7Z" transform="translate(31.267 10.927)" fill="#19538d"/>
      </g>
    </g>
  </g>
</svg>
