<svg xmlns="http://www.w3.org/2000/svg" xmlns:xlink="http://www.w3.org/1999/xlink" width="98" height="98" viewBox="0 0 98 98">
  <defs>
    <clipPath id="clip-path">
      <rect id="Rectángulo_456312" data-name="Rectángulo 456312" width="98" height="98" transform="translate(0.059 0.059)" fill="none"/>
    </clipPath>
  </defs>
  <g id="Grupo_1185491" data-name="Grupo 1185491" transform="translate(-307.117 -10093.059)">
    <g id="Grupo_1179968" data-name="Grupo 1179968" transform="translate(307.059 10093)">
      <g id="Grupo_1179959" data-name="Grupo 1179959" clip-path="url(#clip-path)">
        <path id="Trazado_999654" data-name="Trazado 999654" d="M1.5,5.146H81.261A12.087,12.087,0,0,1,93.377,17.2V96.585H13.616A12.087,12.087,0,0,1,1.5,84.527Z" transform="translate(0.014 0.025)" fill="#fff"/>
      </g>
      <g id="Grupo_1179960" data-name="Grupo 1179960">
        <g id="Grupo_1179956" data-name="Grupo 1179956" clip-path="url(#clip-path)">
          <path id="Trazado_999651" data-name="Trazado 999651" d="M92.229,30a5.024,5.024,0,1,1-5.048,5.024A5.037,5.037,0,0,1,92.229,30" transform="translate(0.84 0.145)" fill="#19538d"/>
          <path id="Trazado_999652" data-name="Trazado 999652" d="M63.229,0a5.024,5.024,0,1,1-5.048,5.024A5.037,5.037,0,0,1,63.229,0" transform="translate(0.56 0)" fill="#19538d"/>
          <path id="Trazado_999653" data-name="Trazado 999653" d="M93.377,35.144V96.585H13.616A12.087,12.087,0,0,1,1.5,84.527V5.146H64.459" transform="translate(0.014 0.025)" fill="none" stroke="#19538d" stroke-miterlimit="10" stroke-width="3"/>
        </g>
      </g>
    </g>
    <g id="Grupo_1179969" data-name="Grupo 1179969" transform="translate(322.757 10111.315)">
      <rect id="Rectángulo_456311" data-name="Rectángulo 456311" width="64.131" height="64.594" fill="#fff"/>
      <g id="Icons" transform="translate(0.667 3.096)">
        <path id="Trazado_1031378" data-name="Trazado 1031378" d="M58.328,2H3.07A3.07,3.07,0,0,0,0,5.07V43.955a3.07,3.07,0,0,0,3.07,3.07H22.513V49.6L17.78,53.389a1.023,1.023,0,0,0-.384.8v2.047a3.07,3.07,0,0,0,3.07,3.07H40.932A3.07,3.07,0,0,0,44,56.235V54.188a1.023,1.023,0,0,0-.384-.8L38.886,49.6V47.025H58.328a3.07,3.07,0,0,0,3.07-3.07V5.07A3.07,3.07,0,0,0,58.328,2ZM40.061,53.165H21.335l2.558-2.047H37.5Zm.871,4.093H20.466a1.023,1.023,0,0,1-1.023-1.023V55.212H41.955v1.023A1.023,1.023,0,0,1,40.932,57.258Zm-4.093-8.186H24.559V47.025h12.28Zm22.513-5.117a1.023,1.023,0,0,1-1.023,1.023H3.07a1.023,1.023,0,0,1-1.023-1.023V5.07A1.023,1.023,0,0,1,3.07,4.047H58.328A1.023,1.023,0,0,1,59.352,5.07Z" transform="translate(0)" fill="#19538d"/>
        <path id="Trazado_1031379" data-name="Trazado 1031379" d="M55.165,6H6.047A2.047,2.047,0,0,0,4,8.047V36.7a2.047,2.047,0,0,0,2.047,2.047H55.165A2.047,2.047,0,0,0,57.212,36.7V8.047A2.047,2.047,0,0,0,55.165,6ZM6.047,36.7v-9.21H9.3a3.07,3.07,0,1,0,0-2.047H6.047V19.3H9.3a3.07,3.07,0,1,0,0-2.047H6.047V8.047H55.165v9.21H51.907a3.07,3.07,0,1,0,0,2.047h3.258v6.14H51.907a3.07,3.07,0,1,0,0,2.047h3.258V36.7Zm5.117-10.233a1.023,1.023,0,1,1,1.023,1.023A1.023,1.023,0,0,1,11.163,26.466Zm0-8.186A1.023,1.023,0,1,1,12.186,19.3,1.023,1.023,0,0,1,11.163,18.28Zm38.886,0a1.023,1.023,0,1,1-1.023-1.023A1.023,1.023,0,0,1,50.049,18.28Zm0,8.186a1.023,1.023,0,1,1-1.023-1.023A1.023,1.023,0,0,1,50.049,26.466Z" transform="translate(0.093 0.093)" fill="#19538d"/>
        <path id="Trazado_1031380" data-name="Trazado 1031380" d="M32.117,40H28.023a1.023,1.023,0,0,0,0,2.047h4.093a1.023,1.023,0,0,0,0-2.047Z" transform="translate(0.629 0.886)" fill="#19538d"/>
        <path id="Trazado_1031381" data-name="Trazado 1031381" d="M41.536,17.163a1.023,1.023,0,0,0,0-2.047H40.513a3.07,3.07,0,0,0-3.07-3.07V11.023a1.023,1.023,0,0,0-2.047,0v1.023H33.35V11.023a1.023,1.023,0,0,0-2.047,0v1.023H29.256V11.023a1.023,1.023,0,1,0-2.047,0v1.023H25.163V11.023a1.023,1.023,0,0,0-2.047,0v1.023a3.07,3.07,0,0,0-3.07,3.07H19.023a1.023,1.023,0,0,0,0,2.047h1.023V19.21H19.023a1.023,1.023,0,0,0,0,2.047h1.023V23.3H19.023a1.023,1.023,0,0,0,0,2.047h1.023V27.4H19.023a1.023,1.023,0,0,0,0,2.047h1.023a3.07,3.07,0,0,0,3.07,3.07v1.023a1.023,1.023,0,1,0,2.047,0V32.513H27.21v1.023a1.023,1.023,0,1,0,2.047,0V32.513H31.3v1.023a1.023,1.023,0,1,0,2.047,0V32.513H35.4v1.023a1.023,1.023,0,1,0,2.047,0V32.513a3.07,3.07,0,0,0,3.07-3.07h1.023a1.023,1.023,0,0,0,0-2.047H40.513V25.35h1.023a1.023,1.023,0,0,0,0-2.047H40.513V21.256h1.023a1.023,1.023,0,0,0,0-2.047H40.513V17.163Zm-3.07,12.28a1.023,1.023,0,0,1-1.023,1.023H23.117a1.023,1.023,0,0,1-1.023-1.023V15.117a1.023,1.023,0,0,1,1.023-1.023H37.443a1.023,1.023,0,0,1,1.023,1.023Z" transform="translate(0.419 0.186)" fill="#19538d"/>
        <path id="Trazado_1031382" data-name="Trazado 1031382" d="M26.047,22.14h2.047a2.047,2.047,0,0,0,2.047-2.047V18.047A2.047,2.047,0,0,0,28.093,16H26.047A2.047,2.047,0,0,0,24,18.047v2.047A2.047,2.047,0,0,0,26.047,22.14Zm0-4.093h2.047v2.047H26.047Z" transform="translate(0.559 0.326)" fill="#19538d"/>
        <path id="Trazado_1031383" data-name="Trazado 1031383" d="M35.07,16H33.023a1.023,1.023,0,1,0,0,2.047H35.07a1.023,1.023,0,1,0,0-2.047Z" transform="translate(0.746 0.326)" fill="#19538d"/>
        <path id="Trazado_1031384" data-name="Trazado 1031384" d="M35.07,20H33.023a1.023,1.023,0,1,0,0,2.047H35.07a1.023,1.023,0,1,0,0-2.047Z" transform="translate(0.746 0.419)" fill="#19538d"/>
        <path id="Trazado_1031385" data-name="Trazado 1031385" d="M35.256,25H25.023a1.023,1.023,0,0,0,0,2.047H35.256a1.023,1.023,0,0,0,0-2.047Z" transform="translate(0.559 0.536)" fill="#19538d"/>
      </g>
    </g>
  </g>
</svg>
