<svg xmlns="http://www.w3.org/2000/svg" xmlns:xlink="http://www.w3.org/1999/xlink" width="96" height="96" viewBox="0 0 96 96">
  <defs>
    <clipPath id="clip-path">
      <rect id="Rectángulo_456267" data-name="Rectángulo 456267" width="96" height="96" fill="none"/>
    </clipPath>
    <clipPath id="clip-path-2">
      <rect id="Rectángulo_459086" data-name="Rectángulo 459086" width="47.15" height="47.092" fill="#0f654d"/>
    </clipPath>
  </defs>
  <g id="Grupo_1185411" data-name="Grupo 1185411" transform="translate(8310 7293)">
    <g id="Grupo_1185388" data-name="Grupo 1185388" transform="translate(-9503 -11665)">
      <g id="Grupo_1185384" data-name="Grupo 1185384" transform="translate(1672.746 12867) rotate(180)">
        <path id="Trazado_999622" data-name="Trazado 999622" d="M43.07,0A43.07,43.07,0,1,1,0,43.07,43.071,43.071,0,0,1,43.07,0" transform="translate(388.676 8403.93)" fill="#e3fbf9"/>
        <g id="Grupo_1179902" data-name="Grupo 1179902" transform="translate(383.746 8399)">
          <g id="Grupo_1179905" data-name="Grupo 1179905" clip-path="url(#clip-path)">
            <path id="Trazado_999618" data-name="Trazado 999618" d="M48,0A48,48,0,1,1,0,48,48,48,0,0,1,48,0" fill="none"/>
            <path id="Trazado_999619" data-name="Trazado 999619" d="M3.75,59A3.75,3.75,0,1,1,0,62.75,3.75,3.75,0,0,1,3.75,59" transform="translate(0 -14.75)" fill="#0f654d"/>
            <path id="Trazado_999620" data-name="Trazado 999620" d="M19.75,19A3.75,3.75,0,1,1,16,22.75,3.75,3.75,0,0,1,19.75,19" transform="translate(-4 -4.75)" fill="#0f654d"/>
            <path id="Trazado_999621" data-name="Trazado 999621" d="M49,94A45.051,45.051,0,0,1,4,49H6.25A42.75,42.75,0,1,0,17.806,19.768l-1.641-1.539A45,45,0,1,1,49,94" transform="translate(-1 -1)" fill="#0f654d"/>
            <rect id="Rectángulo_456268" data-name="Rectángulo 456268" width="96" height="96" fill="none"/>
            <rect id="Rectángulo_456269" data-name="Rectángulo 456269" width="96" height="96" fill="none"/>
          </g>
        </g>
        <g id="Grupo_1179903" data-name="Grupo 1179903" transform="translate(458.745 8474.508) rotate(180)">
          <g id="Grupo_1099618" data-name="Grupo 1099618" transform="translate(0 0)">
            <rect id="Rectángulo_401104" data-name="Rectángulo 401104" width="54.153" height="54.806" transform="translate(0)" fill="none"/>
          </g>
        </g>
      </g>
    </g>
    <g id="Grupo_1185414" data-name="Grupo 1185414" transform="translate(-8284.574 -7269.547)" clip-path="url(#clip-path-2)">
      <path id="Trazado_1031859" data-name="Trazado 1031859" d="M37.9,28.755l-28.56.008c-4.879,0-8.71-4.094-9.247-8.6A9.8,9.8,0,0,1,7.208,9.516a9.929,9.929,0,0,1,5.657-8.6C16.623-.9,20.556.171,23.679,2.408c3.189-1.369,6.9-1.948,10.512-.27,2.855,1.325,4.945,4.319,6.1,7.283C44.6,11.326,47.736,15.2,47.082,20.2c-.572,4.372-4.261,8.555-9.182,8.556" transform="translate(-0.018 0.001)" fill="#0f654d"/>
      <path id="Trazado_1031860" data-name="Trazado 1031860" d="M132.107,219.807a5.049,5.049,0,1,1-2.729,0l.032-5.535a21.971,21.971,0,0,1,2.679-.024Z" transform="translate(-107.182 -182.657)" fill="#0f654d"/>
      <path id="Trazado_1031861" data-name="Trazado 1031861" d="M17.524,208.279c.035,1.4.044,2.764.005,4.214a1.3,1.3,0,0,1-1.324,1.174l-6.278.013a5.056,5.056,0,1,1,0-2.785l4.913,0,.022-2.573c.831-.1,1.6-.024,2.665-.045" transform="translate(0 -176.707)" fill="#0f654d"/>
      <path id="Trazado_1031862" data-name="Trazado 1031862" d="M200.811,208.306l2.666-.021.046,2.608,4.891.032a5.082,5.082,0,1,1,.018,2.758l-6.283-.018a1.283,1.283,0,0,1-1.319-1.171Z" transform="translate(-171.225 -176.708)" fill="#0f654d"/>
    </g>
  </g>
</svg>
