<svg xmlns="http://www.w3.org/2000/svg" xmlns:xlink="http://www.w3.org/1999/xlink" width="135" height="135" viewBox="0 0 135 135">
  <defs>
    <clipPath id="clip-path">
      <rect id="Rectángulo_456267" data-name="Rectángulo 456267" width="135" height="135" fill="none"/>
    </clipPath>
  </defs>
  <g id="Grupo_1185376" data-name="Grupo 1185376" transform="translate(518.746 8534) rotate(180)">
    <path id="Trazado_999622" data-name="Trazado 999622" d="M63.063,0A63.063,63.063,0,1,1,0,63.063,63.064,63.064,0,0,1,63.063,0" transform="translate(388.183 8403.437)" fill="#e1f5ff"/>
    <g id="Grupo_1179902" data-name="Grupo 1179902" transform="translate(383.746 8399)">
      <g id="Grupo_1179905" data-name="Grupo 1179905" clip-path="url(#clip-path)">
        <path id="Trazado_999618" data-name="Trazado 999618" d="M67.5,0A67.5,67.5,0,1,1,0,67.5,67.5,67.5,0,0,1,67.5,0" fill="none"/>
        <path id="Trazado_999619" data-name="Trazado 999619" d="M5.273,59A5.273,5.273,0,1,1,0,64.273,5.274,5.274,0,0,1,5.273,59" transform="translate(0 3.227)" fill="#19538d"/>
        <path id="Trazado_999620" data-name="Trazado 999620" d="M21.273,19A5.273,5.273,0,1,1,16,24.273,5.274,5.274,0,0,1,21.273,19" transform="translate(0.875 1.039)" fill="#19538d"/>
        <path id="Trazado_999621" data-name="Trazado 999621" d="M67.281,130.562A63.353,63.353,0,0,1,4,67.281H7.164A60.117,60.117,0,1,0,23.415,26.174L21.107,24.01A63.281,63.281,0,1,1,67.281,130.562" transform="translate(0.219 0.219)" fill="#19538d"/>
        <rect id="Rectángulo_456268" data-name="Rectángulo 456268" width="135" height="135" fill="none"/>
        <rect id="Rectángulo_456269" data-name="Rectángulo 456269" width="135" height="135" fill="none"/>
      </g>
    </g>
    <g id="Grupo_1179903" data-name="Grupo 1179903" transform="translate(487.492 8503.673) rotate(180)">
      <g id="Grupo_1099618" data-name="Grupo 1099618" transform="translate(-0.254 -0.327)">
        <rect id="Rectángulo_401104" data-name="Rectángulo 401104" width="72.901" height="73.779" transform="translate(0)" fill="none"/>
      </g>
      <g id="_x31_3" transform="translate(-0.807 0.633)">
        <path id="Trazado_1030338" data-name="Trazado 1030338" d="M48.452,16.994H40.96V14.5a2.5,2.5,0,1,0-4.994,0v2.5H25.977V14.5a2.5,2.5,0,1,0-4.994,0v2.5H13.492A7.492,7.492,0,0,0,6,24.486v17.48a7.492,7.492,0,0,0,7.492,7.492H28.475v2.5h-2.5a2.5,2.5,0,1,0,0,4.994h9.989a2.5,2.5,0,1,0,0-4.994h-2.5v-2.5H48.452a7.492,7.492,0,0,0,7.492-7.492V24.486A7.492,7.492,0,0,0,48.452,16.994ZM23.114,39.835A1.248,1.248,0,1,1,21.349,41.6l-7.492-7.492a1.248,1.248,0,0,1,0-1.766l7.492-7.492a1.248,1.248,0,1,1,1.766,1.766l-6.609,6.609Zm12.72-13.54L28.342,41.277a1.251,1.251,0,0,1-1.118.69,1.234,1.234,0,0,1-.557-.132,1.249,1.249,0,0,1-.558-1.675L33.6,25.178a1.249,1.249,0,0,1,2.234,1.117Zm12.252,7.814L40.595,41.6a1.248,1.248,0,0,1-1.766-1.766l6.609-6.609-6.609-6.609a1.248,1.248,0,0,1,1.766-1.766l7.492,7.492a1.248,1.248,0,0,1,0,1.766Z" transform="translate(5.989 14.972)" fill="#19538d"/>
        <path id="Trazado_1030339" data-name="Trazado 1030339" d="M28,2V6.994h4.994Z" transform="translate(38.927 0)" fill="#19538d"/>
        <path id="Trazado_1030340" data-name="Trazado 1030340" d="M40.475,6.994V2H30.486a2.5,2.5,0,0,0-2.5,2.5v9.989H20.5a2.5,2.5,0,0,0-2.5,2.5v4.994a2.5,2.5,0,0,0,4.994,0v-2.5h4.994v7.492a2.5,2.5,0,0,0,2.5,2.5H45.469a2.5,2.5,0,0,0,2.5-2.5V9.492H42.972A2.5,2.5,0,0,1,40.475,6.994Zm3.746,17.48H31.734a1.249,1.249,0,1,1,0-2.5H44.22a1.249,1.249,0,0,1,0,2.5Zm0-4.994H31.734a1.249,1.249,0,1,1,0-2.5H44.22a1.249,1.249,0,0,1,0,2.5Zm1.249-6.243a1.248,1.248,0,0,1-1.249,1.249H31.734a1.249,1.249,0,1,1,0-2.5H44.22A1.248,1.248,0,0,1,45.469,13.237Z" transform="translate(23.955 0)" fill="#19538d"/>
        <path id="Trazado_1030341" data-name="Trazado 1030341" d="M6.994,2,2,6.994H6.994Z" transform="translate(0 0)" fill="#19538d"/>
        <path id="Trazado_1030342" data-name="Trazado 1030342" d="M21.977,26.972V19.48h4.994v2.5a2.5,2.5,0,0,0,4.994,0V16.983a2.5,2.5,0,0,0-2.5-2.5H21.977V4.5A2.5,2.5,0,0,0,19.48,2H9.492V6.994a2.5,2.5,0,0,1-2.5,2.5H2v17.48a2.5,2.5,0,0,0,2.5,2.5H19.48A2.5,2.5,0,0,0,21.977,26.972ZM5.746,11.989H18.232a1.249,1.249,0,1,1,0,2.5H5.746a1.249,1.249,0,1,1,0-2.5Zm0,4.994H18.232a1.249,1.249,0,0,1,0,2.5H5.746a1.249,1.249,0,0,1,0-2.5Zm12.486,7.492H5.746a1.249,1.249,0,1,1,0-2.5H18.232a1.249,1.249,0,1,1,0,2.5Z" transform="translate(0 0)" fill="#19538d"/>
      </g>
    </g>
  </g>
</svg>
