<svg xmlns="http://www.w3.org/2000/svg" xmlns:xlink="http://www.w3.org/1999/xlink" width="96" height="96" viewBox="0 0 96 96">
  <defs>
    <clipPath id="clip-path">
      <rect id="Rectángulo_456267" data-name="Rectángulo 456267" width="96" height="96" fill="none"/>
    </clipPath>
  </defs>
  <g id="Grupo_1185413" data-name="Grupo 1185413" transform="translate(8310 7293)">
    <g id="Grupo_1185388" data-name="Grupo 1185388" transform="translate(-9503 -11665)">
      <g id="Grupo_1185384" data-name="Grupo 1185384" transform="translate(1672.746 12867) rotate(180)">
        <path id="Trazado_999622" data-name="Trazado 999622" d="M43.07,0A43.07,43.07,0,1,1,0,43.07,43.071,43.071,0,0,1,43.07,0" transform="translate(388.676 8403.93)" fill="#e3fbf9"/>
        <g id="Grupo_1179902" data-name="Grupo 1179902" transform="translate(383.746 8399)">
          <g id="Grupo_1179905" data-name="Grupo 1179905" clip-path="url(#clip-path)">
            <path id="Trazado_999618" data-name="Trazado 999618" d="M48,0A48,48,0,1,1,0,48,48,48,0,0,1,48,0" fill="none"/>
            <path id="Trazado_999619" data-name="Trazado 999619" d="M3.75,59A3.75,3.75,0,1,1,0,62.75,3.75,3.75,0,0,1,3.75,59" transform="translate(0 -14.75)" fill="#0f654d"/>
            <path id="Trazado_999620" data-name="Trazado 999620" d="M19.75,19A3.75,3.75,0,1,1,16,22.75,3.75,3.75,0,0,1,19.75,19" transform="translate(-4 -4.75)" fill="#0f654d"/>
            <path id="Trazado_999621" data-name="Trazado 999621" d="M49,94A45.051,45.051,0,0,1,4,49H6.25A42.75,42.75,0,1,0,17.806,19.768l-1.641-1.539A45,45,0,1,1,49,94" transform="translate(-1 -1)" fill="#0f654d"/>
            <rect id="Rectángulo_456268" data-name="Rectángulo 456268" width="96" height="96" fill="none"/>
            <rect id="Rectángulo_456269" data-name="Rectángulo 456269" width="96" height="96" fill="none"/>
          </g>
        </g>
        <g id="Grupo_1179903" data-name="Grupo 1179903" transform="translate(458.745 8474.508) rotate(180)">
          <g id="Grupo_1099618" data-name="Grupo 1099618" transform="translate(0 0)">
            <rect id="Rectángulo_401104" data-name="Rectángulo 401104" width="54.153" height="54.806" transform="translate(0)" fill="none"/>
          </g>
        </g>
      </g>
    </g>
    <g id="data-analytics" transform="translate(-8295.593 -7280.132)">
      <path id="Trazado_1030425" data-name="Trazado 1030425" d="M80,25h5.978v3.985H80Z" transform="translate(-28.154 -6.033)" fill="#0f654d"/>
      <path id="Trazado_1030426" data-name="Trazado 1030426" d="M83.333,48.333h3.985v3.985H83.333Z" transform="translate(-29.495 -15.418)" fill="#0f654d"/>
      <path id="Trazado_1030427" data-name="Trazado 1030427" d="M57.243,53.014l-8.453-8.453a32.28,32.28,0,0,0-3.012-2.594l-3.845-2.842A17.865,17.865,0,0,0,43.447,36.9h7.4V32.914h-5.7a17.7,17.7,0,0,0,0-9.963h3.7V18.967H43.447a17.932,17.932,0,1,0-4.321,22.966l2.842,3.843a32.152,32.152,0,0,0,2.6,3.012l8.453,8.456a2,2,0,0,0,2.819,0l1.408-1.411a2,2,0,0,0,0-2.819ZM34.907,18.967h3.7a13.979,13.979,0,0,1,2.343,3.985H34.907Zm-6.974,0h3.985v3.985H27.934Zm-9.963,0h6.974v3.985H17.971Zm0,6.974h3.985v3.985H17.971ZM28.93,36.9H17.971V32.915H28.93Zm9.673,0H31.919V32.915h9.027A13.971,13.971,0,0,1,38.6,36.9Zm3.119-6.974H24.945V25.941H41.722a12.52,12.52,0,0,1,0,3.985Z" transform="translate(0 0)" fill="#0f654d"/>
      <path id="Trazado_1030428" data-name="Trazado 1030428" d="M75,36.666h8.967v3.985H75Z" transform="translate(-26.143 -10.725)" fill="#0f654d"/>
    </g>
  </g>
</svg>
