<svg xmlns="http://www.w3.org/2000/svg" xmlns:xlink="http://www.w3.org/1999/xlink" width="128" height="128" viewBox="0 0 128 128">
  <defs>
    <clipPath id="clip-path">
      <rect id="Rectángulo_456267" data-name="Rectángulo 456267" width="128" height="128" fill="none"/>
    </clipPath>
  </defs>
  <g id="Grupo_1185437" data-name="Grupo 1185437" transform="translate(511.746 8527) rotate(180)">
    <path id="Trazado_999622" data-name="Trazado 999622" d="M59.07,0A59.07,59.07,0,1,1,0,59.07,59.071,59.071,0,0,1,59.07,0" transform="translate(388.676 8403.93)" fill="#fff"/>
    <g id="Grupo_1179902" data-name="Grupo 1179902" transform="translate(383.746 8399)">
      <g id="Grupo_1179905" data-name="Grupo 1179905" clip-path="url(#clip-path)">
        <path id="Trazado_999618" data-name="Trazado 999618" d="M64,0A64,64,0,1,1,0,64,64,64,0,0,1,64,0" fill="none"/>
        <path id="Trazado_999619" data-name="Trazado 999619" d="M5,59a5,5,0,1,1-5,5,5,5,0,0,1,5-5" fill="#19538d"/>
        <path id="Trazado_999620" data-name="Trazado 999620" d="M21,19a5,5,0,1,1-5,5,5,5,0,0,1,5-5" fill="#19538d"/>
        <path id="Trazado_999621" data-name="Trazado 999621" d="M64,124A60.068,60.068,0,0,1,4,64H7A57,57,0,1,0,22.408,25.024L20.22,22.972A60,60,0,1,1,64,124" fill="#19538d"/>
        <rect id="Rectángulo_456268" data-name="Rectángulo 456268" width="128" height="128" fill="none"/>
        <rect id="Rectángulo_456269" data-name="Rectángulo 456269" width="128" height="128" fill="none"/>
      </g>
    </g>
    <g id="Grupo_1179903" data-name="Grupo 1179903" transform="translate(481.67 8497.729) rotate(180)">
      <g id="Grupo_1099618" data-name="Grupo 1099618" transform="translate(0 0)">
        <rect id="Rectángulo_401104" data-name="Rectángulo 401104" width="68.18" height="69.001" transform="translate(0)" fill="none"/>
      </g>
      <path id="Trazado_1031881" data-name="Trazado 1031881" d="M137.511,34.38v-.663a46.119,46.119,0,0,1,1.342-11.549,37.847,37.847,0,0,1,3.558-9.121,29.384,29.384,0,0,1,4.84-6.528,17.837,17.837,0,0,1,5.216-3.739l1.658,4.583a16.719,16.719,0,0,0-3.377,3.483,25.361,25.361,0,0,0-3,5.428,37.724,37.724,0,0,0-2.156,7.538,53.591,53.591,0,0,0-.814,9.845v.784a53.591,53.591,0,0,0,.814,9.845,38.446,38.446,0,0,0,2.156,7.568,25.525,25.525,0,0,0,3,5.473,17.3,17.3,0,0,0,3.377,3.528l-1.658,4.463a17.953,17.953,0,0,1-5.216-3.724,29.042,29.042,0,0,1-4.84-6.513,37.805,37.805,0,0,1-3.558-9.136A46.3,46.3,0,0,1,137.511,34.38Zm51.78-.663v.663A43.626,43.626,0,0,1,187.9,45.7a38.7,38.7,0,0,1-3.664,9.166,30.264,30.264,0,0,1-4.975,6.649,17.82,17.82,0,0,1-5.382,3.8l-1.689-4.463a16.3,16.3,0,0,0,3.362-3.5,26.434,26.434,0,0,0,3-5.473,37.09,37.09,0,0,0,2.156-7.583,54.828,54.828,0,0,0,.8-9.86v-.784a53.836,53.836,0,0,0-.814-9.86,37.021,37.021,0,0,0-2.186-7.583,26.5,26.5,0,0,0-3.015-5.458,17.329,17.329,0,0,0-3.3-3.483l1.689-4.493a17.713,17.713,0,0,1,5.382,3.814,30.75,30.75,0,0,1,4.975,6.649,38.4,38.4,0,0,1,3.664,9.151A43.626,43.626,0,0,1,189.29,33.716Z" transform="translate(-129.587 -0.075)" fill="#19538d"/>
    </g>
  </g>
</svg>
